<svg width="43" height="44" viewBox="0 0 43 44" fill="none" xmlns="http://www.w3.org/2000/svg">
<g filter="url(#filter0_d_75_56)">
<path d="M8.08 22H5.2V5.2H8.08V22ZM17.0254 22.24C16.3054 22.24 15.5774 22.128 14.8414 21.904C14.1214 21.68 13.4414 21.376 12.8014 20.992C12.1774 20.592 11.6414 20.152 11.1934 19.672L13.3294 17.608C13.8094 18.104 14.3854 18.504 15.0574 18.808C15.7454 19.112 16.3854 19.264 16.9774 19.264C17.7294 19.264 18.3614 19.048 18.8734 18.616C19.4014 18.168 19.6654 17.64 19.6654 17.032C19.6654 16.536 19.4814 16.112 19.1134 15.76C18.7454 15.392 18.2894 15.128 17.7454 14.968C16.3214 14.584 15.1054 14.176 14.0974 13.744C13.1054 13.312 12.3694 12.744 11.8894 12.04C11.4094 11.336 11.2334 10.392 11.3614 9.208C11.4734 8.28 11.7774 7.512 12.2734 6.904C12.7854 6.28 13.4254 5.816 14.1934 5.512C14.9774 5.208 15.8414 5.056 16.7854 5.056C17.6334 5.056 18.5214 5.192 19.4494 5.464C20.3774 5.72 21.2974 6.152 22.2094 6.76L20.1694 8.872C19.7054 8.616 19.2014 8.4 18.6574 8.224C18.1134 8.048 17.5534 7.952 16.9774 7.936C16.5294 7.92 16.0974 7.968 15.6814 8.08C15.2814 8.176 14.9454 8.352 14.6734 8.608C14.4014 8.848 14.2574 9.176 14.2414 9.592C14.2254 10.056 14.3454 10.416 14.6014 10.672C14.8574 10.928 15.2094 11.136 15.6574 11.296C16.1214 11.456 16.6574 11.632 17.2654 11.824C18.3854 12.128 19.3374 12.48 20.1214 12.88C20.9054 13.264 21.5054 13.784 21.9214 14.44C22.3374 15.08 22.5454 15.944 22.5454 17.032C22.5454 18.008 22.2974 18.888 21.8014 19.672C21.3054 20.456 20.6414 21.08 19.8094 21.544C18.9774 22.008 18.0494 22.24 17.0254 22.24ZM35.1871 22V20.632C34.7231 21.08 34.2031 21.44 33.6271 21.712C33.0511 21.984 32.4191 22.12 31.7311 22.12C30.5151 22.12 29.4271 21.848 28.4671 21.304C27.5231 20.744 26.7791 19.992 26.2351 19.048C25.6911 18.104 25.4191 17.064 25.4191 15.928V5.2H28.2751L28.2991 15.928C28.2991 16.536 28.4511 17.088 28.7551 17.584C29.0591 18.064 29.4671 18.44 29.9791 18.712C30.5071 18.984 31.0911 19.12 31.7311 19.12C32.4031 19.12 32.9951 18.984 33.5071 18.712C34.0351 18.424 34.4431 18.04 34.7311 17.56C35.0351 17.08 35.1871 16.536 35.1871 15.928V5.2H38.0671V15.472C38.0671 15.632 38.0511 15.776 38.0191 15.904H38.0671V22H35.1871Z" fill="white"/>
</g>
<g filter="url(#filter1_d_75_56)">
<path d="M8.21699 36H4.82399V29.7H8.21699V30.708H5.90399V32.463H7.77599V33.372H5.90399V34.992H8.21699V36ZM18.3762 36H15.4152V29.7H16.4952V34.938H18.3762V36ZM26.6557 36H25.5757V29.7H26.6557V36ZM33.9432 36V29.7H36.3372C36.6672 29.7 36.9552 29.784 37.2012 29.952C37.4472 30.114 37.6362 30.33 37.7682 30.6C37.9062 30.87 37.9752 31.164 37.9752 31.482C37.9752 31.674 37.9452 31.872 37.8852 32.076C37.8252 32.28 37.7352 32.469 37.6152 32.643C37.8192 32.811 37.9782 33.021 38.0922 33.273C38.2062 33.525 38.2632 33.795 38.2632 34.083C38.2632 34.317 38.2182 34.548 38.1282 34.776C38.0442 35.004 37.9242 35.211 37.7682 35.397C37.6182 35.577 37.4412 35.724 37.2372 35.838C37.0392 35.946 36.8262 36 36.5982 36H33.9432ZM35.0502 32.31H36.3102C36.4182 32.31 36.5142 32.268 36.5982 32.184C36.6822 32.1 36.7482 31.995 36.7962 31.869C36.8502 31.743 36.8772 31.614 36.8772 31.482C36.8772 31.308 36.8292 31.155 36.7332 31.023C36.6372 30.891 36.5052 30.825 36.3372 30.825H35.0502V32.31ZM35.0502 34.875H36.5982C36.6942 34.875 36.7842 34.836 36.8682 34.758C36.9522 34.674 37.0212 34.572 37.0752 34.452C37.1292 34.332 37.1562 34.209 37.1562 34.083C37.1562 33.891 37.1052 33.729 37.0032 33.597C36.9072 33.459 36.7812 33.39 36.6252 33.39H35.0502V34.875Z" fill="#B7FF0F"/>
</g>
<line x1="4" y1="26.5" x2="39" y2="26.5" stroke="white"/>
<g filter="url(#filter2_d_75_56)">
<path d="M8.08 22H5.2V5.2H8.08V22ZM17.0254 22.24C16.3054 22.24 15.5774 22.128 14.8414 21.904C14.1214 21.68 13.4414 21.376 12.8014 20.992C12.1774 20.592 11.6414 20.152 11.1934 19.672L13.3294 17.608C13.8094 18.104 14.3854 18.504 15.0574 18.808C15.7454 19.112 16.3854 19.264 16.9774 19.264C17.7294 19.264 18.3614 19.048 18.8734 18.616C19.4014 18.168 19.6654 17.64 19.6654 17.032C19.6654 16.536 19.4814 16.112 19.1134 15.76C18.7454 15.392 18.2894 15.128 17.7454 14.968C16.3214 14.584 15.1054 14.176 14.0974 13.744C13.1054 13.312 12.3694 12.744 11.8894 12.04C11.4094 11.336 11.2334 10.392 11.3614 9.208C11.4734 8.28 11.7774 7.512 12.2734 6.904C12.7854 6.28 13.4254 5.816 14.1934 5.512C14.9774 5.208 15.8414 5.056 16.7854 5.056C17.6334 5.056 18.5214 5.192 19.4494 5.464C20.3774 5.72 21.2974 6.152 22.2094 6.76L20.1694 8.872C19.7054 8.616 19.2014 8.4 18.6574 8.224C18.1134 8.048 17.5534 7.952 16.9774 7.936C16.5294 7.92 16.0974 7.968 15.6814 8.08C15.2814 8.176 14.9454 8.352 14.6734 8.608C14.4014 8.848 14.2574 9.176 14.2414 9.592C14.2254 10.056 14.3454 10.416 14.6014 10.672C14.8574 10.928 15.2094 11.136 15.6574 11.296C16.1214 11.456 16.6574 11.632 17.2654 11.824C18.3854 12.128 19.3374 12.48 20.1214 12.88C20.9054 13.264 21.5054 13.784 21.9214 14.44C22.3374 15.08 22.5454 15.944 22.5454 17.032C22.5454 18.008 22.2974 18.888 21.8014 19.672C21.3054 20.456 20.6414 21.08 19.8094 21.544C18.9774 22.008 18.0494 22.24 17.0254 22.24ZM35.1871 22V20.632C34.7231 21.08 34.2031 21.44 33.6271 21.712C33.0511 21.984 32.4191 22.12 31.7311 22.12C30.5151 22.12 29.4271 21.848 28.4671 21.304C27.5231 20.744 26.7791 19.992 26.2351 19.048C25.6911 18.104 25.4191 17.064 25.4191 15.928V5.2H28.2751L28.2991 15.928C28.2991 16.536 28.4511 17.088 28.7551 17.584C29.0591 18.064 29.4671 18.44 29.9791 18.712C30.5071 18.984 31.0911 19.12 31.7311 19.12C32.4031 19.12 32.9951 18.984 33.5071 18.712C34.0351 18.424 34.4431 18.04 34.7311 17.56C35.0351 17.08 35.1871 16.536 35.1871 15.928V5.2H38.0671V15.472C38.0671 15.632 38.0511 15.776 38.0191 15.904H38.0671V22H35.1871Z" fill="white"/>
</g>
<g filter="url(#filter3_d_75_56)">
<path d="M8.21699 36H4.82399V29.7H8.21699V30.708H5.90399V32.463H7.77599V33.372H5.90399V34.992H8.21699V36ZM18.3762 36H15.4152V29.7H16.4952V34.938H18.3762V36ZM26.6557 36H25.5757V29.7H26.6557V36ZM33.9432 36V29.7H36.3372C36.6672 29.7 36.9552 29.784 37.2012 29.952C37.4472 30.114 37.6362 30.33 37.7682 30.6C37.9062 30.87 37.9752 31.164 37.9752 31.482C37.9752 31.674 37.9452 31.872 37.8852 32.076C37.8252 32.28 37.7352 32.469 37.6152 32.643C37.8192 32.811 37.9782 33.021 38.0922 33.273C38.2062 33.525 38.2632 33.795 38.2632 34.083C38.2632 34.317 38.2182 34.548 38.1282 34.776C38.0442 35.004 37.9242 35.211 37.7682 35.397C37.6182 35.577 37.4412 35.724 37.2372 35.838C37.0392 35.946 36.8262 36 36.5982 36H33.9432ZM35.0502 32.31H36.3102C36.4182 32.31 36.5142 32.268 36.5982 32.184C36.6822 32.1 36.7482 31.995 36.7962 31.869C36.8502 31.743 36.8772 31.614 36.8772 31.482C36.8772 31.308 36.8292 31.155 36.7332 31.023C36.6372 30.891 36.5052 30.825 36.3372 30.825H35.0502V32.31ZM35.0502 34.875H36.5982C36.6942 34.875 36.7842 34.836 36.8682 34.758C36.9522 34.674 37.0212 34.572 37.0752 34.452C37.1292 34.332 37.1562 34.209 37.1562 34.083C37.1562 33.891 37.1052 33.729 37.0032 33.597C36.9072 33.459 36.7812 33.39 36.6252 33.39H35.0502V34.875Z" fill="#B7FF0F"/>
</g>
<line x1="4" y1="26.5" x2="39" y2="26.5" stroke="white"/>
<defs>
<filter id="filter0_d_75_56" x="1.19995" y="5.05603" width="40.8672" height="25.184" filterUnits="userSpaceOnUse" color-interpolation-filters="sRGB">
<feFlood flood-opacity="0" result="BackgroundImageFix"/>
<feColorMatrix in="SourceAlpha" type="matrix" values="0 0 0 0 0 0 0 0 0 0 0 0 0 0 0 0 0 0 127 0" result="hardAlpha"/>
<feOffset dy="4"/>
<feGaussianBlur stdDeviation="2"/>
<feComposite in2="hardAlpha" operator="out"/>
<feColorMatrix type="matrix" values="0 0 0 0 0 0 0 0 0 0 0 0 0 0 0 0 0 0 0.25 0"/>
<feBlend mode="normal" in2="BackgroundImageFix" result="effect1_dropShadow_75_56"/>
<feBlend mode="normal" in="SourceGraphic" in2="effect1_dropShadow_75_56" result="shape"/>
</filter>
<filter id="filter1_d_75_56" x="0.823975" y="29.7" width="41.4392" height="14.3" filterUnits="userSpaceOnUse" color-interpolation-filters="sRGB">
<feFlood flood-opacity="0" result="BackgroundImageFix"/>
<feColorMatrix in="SourceAlpha" type="matrix" values="0 0 0 0 0 0 0 0 0 0 0 0 0 0 0 0 0 0 127 0" result="hardAlpha"/>
<feOffset dy="4"/>
<feGaussianBlur stdDeviation="2"/>
<feComposite in2="hardAlpha" operator="out"/>
<feColorMatrix type="matrix" values="0 0 0 0 0 0 0 0 0 0 0 0 0 0 0 0 0 0 0.25 0"/>
<feBlend mode="normal" in2="BackgroundImageFix" result="effect1_dropShadow_75_56"/>
<feBlend mode="normal" in="SourceGraphic" in2="effect1_dropShadow_75_56" result="shape"/>
</filter>
<filter id="filter2_d_75_56" x="1.19995" y="5.05603" width="40.8672" height="25.184" filterUnits="userSpaceOnUse" color-interpolation-filters="sRGB">
<feFlood flood-opacity="0" result="BackgroundImageFix"/>
<feColorMatrix in="SourceAlpha" type="matrix" values="0 0 0 0 0 0 0 0 0 0 0 0 0 0 0 0 0 0 127 0" result="hardAlpha"/>
<feOffset dy="4"/>
<feGaussianBlur stdDeviation="2"/>
<feComposite in2="hardAlpha" operator="out"/>
<feColorMatrix type="matrix" values="0 0 0 0 0 0 0 0 0 0 0 0 0 0 0 0 0 0 0.25 0"/>
<feBlend mode="normal" in2="BackgroundImageFix" result="effect1_dropShadow_75_56"/>
<feBlend mode="normal" in="SourceGraphic" in2="effect1_dropShadow_75_56" result="shape"/>
</filter>
<filter id="filter3_d_75_56" x="0.823975" y="29.7" width="41.4392" height="14.3" filterUnits="userSpaceOnUse" color-interpolation-filters="sRGB">
<feFlood flood-opacity="0" result="BackgroundImageFix"/>
<feColorMatrix in="SourceAlpha" type="matrix" values="0 0 0 0 0 0 0 0 0 0 0 0 0 0 0 0 0 0 127 0" result="hardAlpha"/>
<feOffset dy="4"/>
<feGaussianBlur stdDeviation="2"/>
<feComposite in2="hardAlpha" operator="out"/>
<feColorMatrix type="matrix" values="0 0 0 0 0 0 0 0 0 0 0 0 0 0 0 0 0 0 0.25 0"/>
<feBlend mode="normal" in2="BackgroundImageFix" result="effect1_dropShadow_75_56"/>
<feBlend mode="normal" in="SourceGraphic" in2="effect1_dropShadow_75_56" result="shape"/>
</filter>
</defs>
</svg>
