<svg width="155" height="57" viewBox="0 0 155 57" fill="none" xmlns="http://www.w3.org/2000/svg">
<mask id="path-1-outside-1_40_411" maskUnits="userSpaceOnUse" x="0" y="9" width="65" height="40" fill="black">
<rect fill="white" y="9" width="65" height="40"/>
<path d="M8.5 47H2.5V12H8.5V47ZM23.1363 47.5C21.6363 47.5 20.1197 47.2667 18.5863 46.8C17.0863 46.3333 15.6697 45.7 14.3363 44.9C13.0363 44.0667 11.9197 43.15 10.9863 42.15L15.4363 37.85C16.4363 38.8833 17.6363 39.7167 19.0363 40.35C20.4697 40.9833 21.803 41.3 23.0363 41.3C24.603 41.3 25.9197 40.85 26.9863 39.95C28.0863 39.0167 28.6363 37.9167 28.6363 36.65C28.6363 35.6167 28.253 34.7333 27.4863 34C26.7197 33.2333 25.7697 32.6833 24.6363 32.35C21.6697 31.55 19.1363 30.7 17.0363 29.8C14.9697 28.9 13.4363 27.7167 12.4363 26.25C11.4363 24.7833 11.0697 22.8167 11.3363 20.35C11.5697 18.4167 12.203 16.8167 13.2363 15.55C14.303 14.25 15.6363 13.2833 17.2363 12.65C18.8697 12.0167 20.6697 11.7 22.6363 11.7C24.403 11.7 26.253 11.9833 28.1863 12.55C30.1197 13.0833 32.0363 13.9833 33.9363 15.25L29.6863 19.65C28.7197 19.1167 27.6697 18.6667 26.5363 18.3C25.403 17.9333 24.2363 17.7333 23.0363 17.7C22.103 17.6667 21.203 17.7667 20.3363 18C19.503 18.2 18.803 18.5667 18.2363 19.1C17.6697 19.6 17.3697 20.2833 17.3363 21.15C17.303 22.1167 17.553 22.8667 18.0863 23.4C18.6197 23.9333 19.353 24.3667 20.2863 24.7C21.253 25.0333 22.3697 25.4 23.6363 25.8C25.9697 26.4333 27.953 27.1667 29.5863 28C31.2197 28.8 32.4697 29.8833 33.3363 31.25C34.203 32.5833 34.6363 34.3833 34.6363 36.65C34.6363 38.6833 34.1197 40.5167 33.0863 42.15C32.053 43.7833 30.6697 45.0833 28.9363 46.05C27.203 47.0167 25.2697 47.5 23.1363 47.5ZM56.973 47V44.15C56.0064 45.0833 54.923 45.8333 53.723 46.4C52.523 46.9667 51.2064 47.25 49.773 47.25C47.2397 47.25 44.973 46.6833 42.973 45.55C41.0064 44.3833 39.4564 42.8167 38.323 40.85C37.1897 38.8833 36.623 36.7167 36.623 34.35V12H42.573L42.623 34.35C42.623 35.6167 42.9397 36.7667 43.573 37.8C44.2064 38.8 45.0564 39.5833 46.123 40.15C47.223 40.7167 48.4397 41 49.773 41C51.173 41 52.4064 40.7167 53.473 40.15C54.573 39.55 55.423 38.75 56.023 37.75C56.6564 36.75 56.973 35.6167 56.973 34.35V12H62.973V33.4C62.973 33.7333 62.9397 34.0333 62.873 34.3H62.973V47H56.973Z"/>
</mask>
<path d="M8.5 47H2.5V12H8.5V47ZM23.1363 47.5C21.6363 47.5 20.1197 47.2667 18.5863 46.8C17.0863 46.3333 15.6697 45.7 14.3363 44.9C13.0363 44.0667 11.9197 43.15 10.9863 42.15L15.4363 37.85C16.4363 38.8833 17.6363 39.7167 19.0363 40.35C20.4697 40.9833 21.803 41.3 23.0363 41.3C24.603 41.3 25.9197 40.85 26.9863 39.95C28.0863 39.0167 28.6363 37.9167 28.6363 36.65C28.6363 35.6167 28.253 34.7333 27.4863 34C26.7197 33.2333 25.7697 32.6833 24.6363 32.35C21.6697 31.55 19.1363 30.7 17.0363 29.8C14.9697 28.9 13.4363 27.7167 12.4363 26.25C11.4363 24.7833 11.0697 22.8167 11.3363 20.35C11.5697 18.4167 12.203 16.8167 13.2363 15.55C14.303 14.25 15.6363 13.2833 17.2363 12.65C18.8697 12.0167 20.6697 11.7 22.6363 11.7C24.403 11.7 26.253 11.9833 28.1863 12.55C30.1197 13.0833 32.0363 13.9833 33.9363 15.25L29.6863 19.65C28.7197 19.1167 27.6697 18.6667 26.5363 18.3C25.403 17.9333 24.2363 17.7333 23.0363 17.7C22.103 17.6667 21.203 17.7667 20.3363 18C19.503 18.2 18.803 18.5667 18.2363 19.1C17.6697 19.6 17.3697 20.2833 17.3363 21.15C17.303 22.1167 17.553 22.8667 18.0863 23.4C18.6197 23.9333 19.353 24.3667 20.2863 24.7C21.253 25.0333 22.3697 25.4 23.6363 25.8C25.9697 26.4333 27.953 27.1667 29.5863 28C31.2197 28.8 32.4697 29.8833 33.3363 31.25C34.203 32.5833 34.6363 34.3833 34.6363 36.65C34.6363 38.6833 34.1197 40.5167 33.0863 42.15C32.053 43.7833 30.6697 45.0833 28.9363 46.05C27.203 47.0167 25.2697 47.5 23.1363 47.5ZM56.973 47V44.15C56.0064 45.0833 54.923 45.8333 53.723 46.4C52.523 46.9667 51.2064 47.25 49.773 47.25C47.2397 47.25 44.973 46.6833 42.973 45.55C41.0064 44.3833 39.4564 42.8167 38.323 40.85C37.1897 38.8833 36.623 36.7167 36.623 34.35V12H42.573L42.623 34.35C42.623 35.6167 42.9397 36.7667 43.573 37.8C44.2064 38.8 45.0564 39.5833 46.123 40.15C47.223 40.7167 48.4397 41 49.773 41C51.173 41 52.4064 40.7167 53.473 40.15C54.573 39.55 55.423 38.75 56.023 37.75C56.6564 36.75 56.973 35.6167 56.973 34.35V12H62.973V33.4C62.973 33.7333 62.9397 34.0333 62.873 34.3H62.973V47H56.973Z" fill="#064216"/>
<path d="M8.5 47.75C8.5 47.25 8.5 46.75 8.5 46.25C7.13333 46.1667 5.76667 46.0875 4.4 46.0125C3.76667 45.9777 3.13333 45.9439 2.5 45.9109L3.58908 47C4.19636 35.3333 4.5 23.6667 4.5 12C4.5 12 4.5 12 4.5 12L2.5 14C4.5 14 6.5 13.9911 8.5 13.9732L6.52677 12C6.61868 22.3 6.94726 32.6 7.5125 42.9C7.5875 44.2667 7.66667 45.6333 7.75 47C8.25 47 8.75 47 9.25 47C9.33333 45.6333 9.4125 44.2667 9.4875 42.9C10.0527 32.6 10.3813 22.3 10.4732 12C10.4633 10.8838 9.61618 10.0168 8.5 10.0268C6.5 10.0089 4.5 10 2.5 10C1.36863 10 0.5 10.8686 0.5 12C0.5 23.6667 0.803639 35.3333 1.41092 47C1.44294 47.6152 1.88475 48.1211 2.5 48.0891C3.13333 48.0561 3.76667 48.0223 4.4 47.9875C5.76667 47.9125 7.13333 47.8333 8.5 47.75ZM8.5 46.25V47.75C8.92348 47.7242 9.27582 47.4235 9.25 47H7.75L8.5 46.25ZM23.1363 48.25C23.1363 47.75 23.1363 47.25 23.1363 46.75C21.6755 46.7009 20.2314 46.4147 18.847 45.9435C17.9212 45.6227 17.019 45.23 16.1557 44.7694C15.716 44.5349 15.2863 44.2829 14.8678 44.0143L14.8938 44.0304C13.7563 43.2525 12.7118 42.3661 11.8291 41.3634L11.7874 42.979C13.309 41.5853 14.8287 40.1896 16.3466 38.792L14.495 38.761C15.6128 39.9714 16.9875 40.9403 18.4543 41.6365C18.4566 41.6376 18.4634 41.6405 18.4656 41.6416C19.8326 42.2762 21.3611 42.7686 23.0363 42.8005C24.7025 42.8514 26.6062 42.3404 28.0079 41.1607C29.2383 40.2071 30.3176 38.4436 30.2887 36.65C30.3464 35.2622 29.661 33.6926 28.6623 32.7705L28.6894 32.797C27.7044 31.7771 26.4193 31.0584 25.1306 30.6694C25.123 30.6671 25.1001 30.6608 25.0924 30.6586C22.5743 29.9372 20.0913 29.1204 17.7667 28.0958L17.7766 28.1001C16.1911 27.3899 14.8331 26.4122 14.0161 25.1729C13.2483 24.041 13.0702 22.3412 13.2819 20.5603L13.2791 20.5845C13.4646 19.1107 13.9472 17.7968 14.7726 16.8033C15.6226 15.7736 16.7038 15.0026 17.9711 14.5063L17.9581 14.5114C19.0363 14.0953 20.1915 13.8479 21.3864 13.7502C21.7989 13.7162 22.216 13.6999 22.6363 13.6996C24.2875 13.698 25.9698 13.979 27.6267 14.4592C27.6328 14.461 27.6511 14.4662 27.6572 14.4679C29.4678 14.9598 31.2123 15.8056 32.8479 16.8826L32.5251 13.8868C31.1167 15.3615 29.7102 16.838 28.3056 18.3163L30.6137 17.9691C29.488 17.3587 28.3109 16.877 27.1178 16.5027C25.8151 16.0919 24.4457 15.8719 23.0878 15.8488L23.1024 15.8492C22.0245 15.8197 20.9199 15.9453 19.8632 16.2426L19.9116 16.2303C18.8923 16.4787 17.8288 17.0026 17.01 17.7971L17.0525 17.7583C16.06 18.6048 15.5811 20.0134 15.5802 21.0825C15.5396 22.1436 15.8201 23.6099 16.8692 24.6172C17.7553 25.4764 18.7651 25.9518 19.7211 26.2826C19.7246 26.2839 19.735 26.2875 19.7385 26.2887C20.8764 26.6604 22.0119 27.0078 23.1485 27.3449C23.161 27.3491 23.1992 27.3598 23.2119 27.3635C25.1927 27.864 27.1342 28.4829 28.9055 29.3344C28.9098 29.3367 28.923 29.3431 28.9274 29.3454C30.2575 29.9551 31.3874 30.8344 32.1629 31.9941C32.1645 31.9968 32.1697 32.0046 32.1713 32.0073C33.0057 33.2046 33.3367 34.9143 33.3811 36.65C33.4354 38.3793 33.0382 40.0757 32.154 41.5601C31.5261 42.6251 30.7114 43.572 29.7386 44.3537C29.3424 44.6728 28.9212 44.9651 28.4793 45.2305C26.8962 46.19 25.0449 46.6904 23.1363 46.75C23.1363 47.25 23.1363 47.75 23.1363 48.25C25.2541 48.3239 27.4581 47.8905 29.3933 46.8695C29.9225 46.5934 30.4366 46.2808 30.9278 45.9306C32.134 45.074 33.1925 43.9806 34.0187 42.7399C35.2214 40.9661 35.8573 38.7805 35.8916 36.65C35.9263 34.6588 35.7188 32.4795 34.5013 30.4927L34.5098 30.5059C33.4976 28.8179 31.9247 27.5047 30.2453 26.6546L30.2672 26.6656C28.2581 25.5974 26.1647 24.8504 24.0607 24.2365L24.1242 24.2551C23.019 23.8838 21.9186 23.5053 20.8342 23.1113L20.8515 23.1174C20.1961 22.8706 19.6386 22.5409 19.3035 22.1828C19.1686 22.0336 19.0645 21.7665 19.0928 21.2106C19.1307 20.7574 19.2327 20.604 19.4201 20.4417C19.4287 20.4339 19.4544 20.4109 19.4626 20.4029C19.8065 20.0943 20.2266 19.8885 20.7611 19.7697C20.7708 19.7673 20.7999 19.7601 20.8095 19.7574C21.5083 19.5805 22.2319 19.514 22.9702 19.5508C22.9732 19.5508 22.982 19.5512 22.9849 19.5512C24.0015 19.5923 24.9978 19.7751 25.9548 20.0973C26.9386 20.4271 27.8809 20.8355 28.759 21.3309C29.473 21.7172 30.5079 21.5723 31.0671 20.9837C32.4958 19.5287 33.9226 18.0718 35.3476 16.6131C36.2546 15.6635 36.1214 14.3397 35.0247 13.6174C33.1251 12.3359 31.0091 11.2706 28.7154 10.6321L28.7459 10.6408C26.8009 10.0648 24.7439 9.70148 22.6363 9.70042C22.113 9.70014 21.5865 9.72021 21.0587 9.76361C19.5308 9.88827 17.985 10.2148 16.5145 10.7886C16.5119 10.7896 16.5041 10.7926 16.5015 10.7937C14.6677 11.5108 12.9537 12.7411 11.7036 14.2924C10.2993 16.0109 9.61459 18.136 9.39357 20.1155C9.39301 20.1204 9.3913 20.1348 9.3908 20.1397C9.16751 22.3794 9.288 25.0365 10.8565 27.3271C12.2591 29.3551 14.2973 30.654 16.296 31.4999C16.298 31.5008 16.304 31.5034 16.3059 31.5042C18.9029 32.5793 21.5369 33.3649 24.1802 34.0414L24.142 34.0306C24.9818 34.2602 25.7018 34.645 26.2833 35.203C26.2887 35.2083 26.3048 35.2243 26.3103 35.2295C26.768 35.6566 26.9592 36.0471 26.984 36.65C27.0058 37.4305 26.6921 38.0861 25.9615 38.7421C25.1991 39.4265 24.2054 39.773 23.0363 39.7995C21.9424 39.8293 20.7595 39.5352 19.607 39.0584L19.6183 39.0635C18.4066 38.5525 17.3025 37.8458 16.3777 36.939C15.8501 36.4195 15.046 36.3808 14.5261 36.908C13.0773 38.3771 11.6303 39.848 10.1852 41.321C9.73641 41.7784 9.69391 42.4799 10.1435 42.9366C11.2384 44.0529 12.4784 44.9849 13.7789 45.7696C13.7841 45.7727 13.7996 45.7827 13.8049 45.7857C14.2865 46.0572 14.7789 46.309 15.2802 46.5398C16.2645 46.9931 17.2831 47.3652 18.3204 47.6549C19.8866 48.0837 21.5155 48.3012 23.1363 48.25ZM23.1363 46.75V48.25V46.75ZM56.223 47C56.723 47 57.223 47 57.723 47C57.7504 46.05 57.7774 45.1 57.8039 44.15C57.8191 43.3259 56.9995 42.9909 56.396 43.5523C55.481 44.386 54.4427 45.062 53.3221 45.551C52.8177 45.7712 52.2921 45.9355 51.7535 46.044C51.1073 46.1744 50.4426 46.2245 49.773 46.2057C47.555 46.1524 45.4024 45.6013 43.5719 44.4932L43.5928 44.5053C41.8623 43.4268 40.4593 41.938 39.5014 40.1709C38.5214 38.3896 38.068 36.3882 38.1156 34.35C38.2524 26.9 38.3616 19.45 38.4431 12L36.623 13.82C38.6064 13.8417 40.5897 13.8615 42.573 13.8792L40.6938 12.0042C40.6437 19.4544 40.6213 26.9044 40.6266 34.3545C40.613 35.8721 41.0345 37.5078 41.868 38.845C41.8711 38.8501 41.8804 38.865 41.8835 38.87C42.1085 39.2254 42.3609 39.5687 42.6391 39.8925C43.3531 40.7276 44.2422 41.4179 45.1852 41.9153C45.1897 41.9177 45.2031 41.9247 45.2076 41.927C46.6286 42.6656 48.2487 43.0024 49.773 42.9934C51.2892 42.9948 52.9338 42.6919 54.4033 41.9011C54.4072 41.8991 54.4187 41.8929 54.4226 41.8908C55.7157 41.1916 56.9275 40.0995 57.7113 38.763L57.6864 38.8034C58.5373 37.4735 58.9422 35.8431 58.9235 34.35C58.8807 26.9 58.8103 19.45 58.7122 12L56.973 13.7391C58.973 13.7128 60.973 13.6845 62.973 13.6542L61.3189 12C61.4271 19.1333 61.5606 26.2667 61.7195 33.4C61.7265 33.6266 61.7115 33.8348 61.6767 34.0009C61.4464 34.8419 62.0013 35.5138 62.873 35.5332C62.9064 35.5324 62.9397 35.5317 62.973 35.5309L61.7421 34.3C61.8177 37.6425 61.8988 40.985 61.9855 44.3274C62.0087 45.2183 62.0322 46.1091 62.0561 47L62.973 46.083C60.973 46.1367 58.973 46.1923 56.973 46.25C56.973 46.75 56.973 47.25 56.973 47.75C58.973 47.8077 60.973 47.8633 62.973 47.917C63.4916 47.9031 63.9039 47.5185 63.89 47C63.9139 46.1091 63.9374 45.2183 63.9605 44.3274C64.0473 40.985 64.1284 37.6425 64.204 34.3C64.1882 33.6039 63.6692 33.0533 62.973 33.0691C62.9397 33.0683 62.9064 33.0676 62.873 33.0668L64.0694 34.5991C64.1811 34.1776 64.2193 33.7782 64.2266 33.4C64.3855 26.2667 64.519 19.1333 64.6272 12C64.613 11.0644 63.9087 10.3317 62.973 10.3458C60.973 10.3155 58.973 10.2872 56.973 10.2609C55.9893 10.2738 55.2209 11.0163 55.2339 12C55.1358 19.45 55.0654 26.9 55.0226 34.35C55.0158 35.2406 54.7996 36.0132 54.3597 36.6966C54.3547 36.7046 54.3396 36.7289 54.3348 36.737C53.9097 37.4363 53.3074 37.9864 52.5235 38.4092L52.5428 38.3989C51.7509 38.8168 50.8083 39.0104 49.773 39.0066C48.7769 39.0047 47.8599 38.7986 47.0385 38.373L47.0609 38.3847C46.5161 38.0946 46.0551 37.7307 45.6734 37.2861C45.5248 37.1132 45.388 36.9279 45.2625 36.73L45.2781 36.755C44.836 36.035 44.6213 35.2437 44.6195 34.35C44.5914 26.8956 44.5357 19.4456 44.4523 11.9958C44.4404 10.9352 43.6337 10.1113 42.573 10.1208C40.5897 10.1385 38.6064 10.1583 36.623 10.18C35.5935 10.1912 34.7918 10.9705 34.803 12C34.8845 19.45 34.9937 26.9 35.1305 34.35C35.159 36.842 35.8414 39.3888 37.1447 41.5291C38.3974 43.6357 40.2395 45.4143 42.3533 46.5947C42.3575 46.597 42.3699 46.6045 42.3742 46.6068C44.6563 47.8505 47.2714 48.3636 49.773 48.2943C50.5847 48.2759 51.4031 48.1728 52.2001 47.9678C52.8642 47.7975 53.5121 47.5563 54.124 47.249C55.3986 46.6101 56.5628 45.7547 57.5501 44.7477L56.1422 44.15C56.1687 45.1 56.1957 46.05 56.223 47ZM57.723 47H56.223C56.2353 47.4241 56.549 47.7622 56.973 47.75V46.25L57.723 47Z" fill="#064216" mask="url(#path-1-outside-1_40_411)"/>
<path d="M8.5 47.75C8.5 47.25 8.5 46.75 8.5 46.25C7.13333 46.1667 5.76667 46.0875 4.4 46.0125C3.76667 45.9777 3.13333 45.9439 2.5 45.9109L3.58908 47C4.19636 35.3333 4.5 23.6667 4.5 12C4.5 12 4.5 12 4.5 12L2.5 14C4.5 14 6.5 13.9911 8.5 13.9732L6.52677 12C6.61868 22.3 6.94726 32.6 7.5125 42.9C7.5875 44.2667 7.66667 45.6333 7.75 47C8.25 47 8.75 47 9.25 47C9.33333 45.6333 9.4125 44.2667 9.4875 42.9C10.0527 32.6 10.3813 22.3 10.4732 12C10.4633 10.8838 9.61618 10.0168 8.5 10.0268C6.5 10.0089 4.5 10 2.5 10C1.36863 10 0.5 10.8686 0.5 12C0.5 23.6667 0.803639 35.3333 1.41092 47C1.44294 47.6152 1.88475 48.1211 2.5 48.0891C3.13333 48.0561 3.76667 48.0223 4.4 47.9875C5.76667 47.9125 7.13333 47.8333 8.5 47.75ZM8.5 46.25V47.75C8.92348 47.7242 9.27582 47.4235 9.25 47H7.75L8.5 46.25ZM23.1363 48.25C23.1363 47.75 23.1363 47.25 23.1363 46.75C21.6755 46.7009 20.2314 46.4147 18.847 45.9435C17.9212 45.6227 17.019 45.23 16.1557 44.7694C15.716 44.5349 15.2863 44.2829 14.8678 44.0143L14.8938 44.0304C13.7563 43.2525 12.7118 42.3661 11.8291 41.3634L11.7874 42.979C13.309 41.5853 14.8287 40.1896 16.3466 38.792L14.495 38.761C15.6128 39.9714 16.9875 40.9403 18.4543 41.6365C18.4566 41.6376 18.4634 41.6405 18.4656 41.6416C19.8326 42.2762 21.3611 42.7686 23.0363 42.8005C24.7025 42.8514 26.6062 42.3404 28.0079 41.1607C29.2383 40.2071 30.3176 38.4436 30.2887 36.65C30.3464 35.2622 29.661 33.6926 28.6623 32.7705L28.6894 32.797C27.7044 31.7771 26.4193 31.0584 25.1306 30.6694C25.123 30.6671 25.1001 30.6608 25.0924 30.6586C22.5743 29.9372 20.0913 29.1204 17.7667 28.0958L17.7766 28.1001C16.1911 27.3899 14.8331 26.4122 14.0161 25.1729C13.2483 24.041 13.0702 22.3412 13.2819 20.5603L13.2791 20.5845C13.4646 19.1107 13.9472 17.7968 14.7726 16.8033C15.6226 15.7736 16.7038 15.0026 17.9711 14.5063L17.9581 14.5114C19.0363 14.0953 20.1915 13.8479 21.3864 13.7502C21.7989 13.7162 22.216 13.6999 22.6363 13.6996C24.2875 13.698 25.9698 13.979 27.6267 14.4592C27.6328 14.461 27.6511 14.4662 27.6572 14.4679C29.4678 14.9598 31.2123 15.8056 32.8479 16.8826L32.5251 13.8868C31.1167 15.3615 29.7102 16.838 28.3056 18.3163L30.6137 17.9691C29.488 17.3587 28.3109 16.877 27.1178 16.5027C25.8151 16.0919 24.4457 15.8719 23.0878 15.8488L23.1024 15.8492C22.0245 15.8197 20.9199 15.9453 19.8632 16.2426L19.9116 16.2303C18.8923 16.4787 17.8288 17.0026 17.01 17.7971L17.0525 17.7583C16.06 18.6048 15.5811 20.0134 15.5802 21.0825C15.5396 22.1436 15.8201 23.6099 16.8692 24.6172C17.7553 25.4764 18.7651 25.9518 19.7211 26.2826C19.7246 26.2839 19.735 26.2875 19.7385 26.2887C20.8764 26.6604 22.0119 27.0078 23.1485 27.3449C23.161 27.3491 23.1992 27.3598 23.2119 27.3635C25.1927 27.864 27.1342 28.4829 28.9055 29.3344C28.9098 29.3367 28.923 29.3431 28.9274 29.3454C30.2575 29.9551 31.3874 30.8344 32.1629 31.9941C32.1645 31.9968 32.1697 32.0046 32.1713 32.0073C33.0057 33.2046 33.3367 34.9143 33.3811 36.65C33.4354 38.3793 33.0382 40.0757 32.154 41.5601C31.5261 42.6251 30.7114 43.572 29.7386 44.3537C29.3424 44.6728 28.9212 44.9651 28.4793 45.2305C26.8962 46.19 25.0449 46.6904 23.1363 46.75C23.1363 47.25 23.1363 47.75 23.1363 48.25C25.2541 48.3239 27.4581 47.8905 29.3933 46.8695C29.9225 46.5934 30.4366 46.2808 30.9278 45.9306C32.134 45.074 33.1925 43.9806 34.0187 42.7399C35.2214 40.9661 35.8573 38.7805 35.8916 36.65C35.9263 34.6588 35.7188 32.4795 34.5013 30.4927L34.5098 30.5059C33.4976 28.8179 31.9247 27.5047 30.2453 26.6546L30.2672 26.6656C28.2581 25.5974 26.1647 24.8504 24.0607 24.2365L24.1242 24.2551C23.019 23.8838 21.9186 23.5053 20.8342 23.1113L20.8515 23.1174C20.1961 22.8706 19.6386 22.5409 19.3035 22.1828C19.1686 22.0336 19.0645 21.7665 19.0928 21.2106C19.1307 20.7574 19.2327 20.604 19.4201 20.4417C19.4287 20.4339 19.4544 20.4109 19.4626 20.4029C19.8065 20.0943 20.2266 19.8885 20.7611 19.7697C20.7708 19.7673 20.7999 19.7601 20.8095 19.7574C21.5083 19.5805 22.2319 19.514 22.9702 19.5508C22.9732 19.5508 22.982 19.5512 22.9849 19.5512C24.0015 19.5923 24.9978 19.7751 25.9548 20.0973C26.9386 20.4271 27.8809 20.8355 28.759 21.3309C29.473 21.7172 30.5079 21.5723 31.0671 20.9837C32.4958 19.5287 33.9226 18.0718 35.3476 16.6131C36.2546 15.6635 36.1214 14.3397 35.0247 13.6174C33.1251 12.3359 31.0091 11.2706 28.7154 10.6321L28.7459 10.6408C26.8009 10.0648 24.7439 9.70148 22.6363 9.70042C22.113 9.70014 21.5865 9.72021 21.0587 9.76361C19.5308 9.88827 17.985 10.2148 16.5145 10.7886C16.5119 10.7896 16.5041 10.7926 16.5015 10.7937C14.6677 11.5108 12.9537 12.7411 11.7036 14.2924C10.2993 16.0109 9.61459 18.136 9.39357 20.1155C9.39301 20.1204 9.3913 20.1348 9.3908 20.1397C9.16751 22.3794 9.288 25.0365 10.8565 27.3271C12.2591 29.3551 14.2973 30.654 16.296 31.4999C16.298 31.5008 16.304 31.5034 16.3059 31.5042C18.9029 32.5793 21.5369 33.3649 24.1802 34.0414L24.142 34.0306C24.9818 34.2602 25.7018 34.645 26.2833 35.203C26.2887 35.2083 26.3048 35.2243 26.3103 35.2295C26.768 35.6566 26.9592 36.0471 26.984 36.65C27.0058 37.4305 26.6921 38.0861 25.9615 38.7421C25.1991 39.4265 24.2054 39.773 23.0363 39.7995C21.9424 39.8293 20.7595 39.5352 19.607 39.0584L19.6183 39.0635C18.4066 38.5525 17.3025 37.8458 16.3777 36.939C15.8501 36.4195 15.046 36.3808 14.5261 36.908C13.0773 38.3771 11.6303 39.848 10.1852 41.321C9.73641 41.7784 9.69391 42.4799 10.1435 42.9366C11.2384 44.0529 12.4784 44.9849 13.7789 45.7696C13.7841 45.7727 13.7996 45.7827 13.8049 45.7857C14.2865 46.0572 14.7789 46.309 15.2802 46.5398C16.2645 46.9931 17.2831 47.3652 18.3204 47.6549C19.8866 48.0837 21.5155 48.3012 23.1363 48.25ZM23.1363 46.75V48.25V46.75ZM56.223 47C56.723 47 57.223 47 57.723 47C57.7504 46.05 57.7774 45.1 57.8039 44.15C57.8191 43.3259 56.9995 42.9909 56.396 43.5523C55.481 44.386 54.4427 45.062 53.3221 45.551C52.8177 45.7712 52.2921 45.9355 51.7535 46.044C51.1073 46.1744 50.4426 46.2245 49.773 46.2057C47.555 46.1524 45.4024 45.6013 43.5719 44.4932L43.5928 44.5053C41.8623 43.4268 40.4593 41.938 39.5014 40.1709C38.5214 38.3896 38.068 36.3882 38.1156 34.35C38.2524 26.9 38.3616 19.45 38.4431 12L36.623 13.82C38.6064 13.8417 40.5897 13.8615 42.573 13.8792L40.6938 12.0042C40.6437 19.4544 40.6213 26.9044 40.6266 34.3545C40.613 35.8721 41.0345 37.5078 41.868 38.845C41.8711 38.8501 41.8804 38.865 41.8835 38.87C42.1085 39.2254 42.3609 39.5687 42.6391 39.8925C43.3531 40.7276 44.2422 41.4179 45.1852 41.9153C45.1897 41.9177 45.2031 41.9247 45.2076 41.927C46.6286 42.6656 48.2487 43.0024 49.773 42.9934C51.2892 42.9948 52.9338 42.6919 54.4033 41.9011C54.4072 41.8991 54.4187 41.8929 54.4226 41.8908C55.7157 41.1916 56.9275 40.0995 57.7113 38.763L57.6864 38.8034C58.5373 37.4735 58.9422 35.8431 58.9235 34.35C58.8807 26.9 58.8103 19.45 58.7122 12L56.973 13.7391C58.973 13.7128 60.973 13.6845 62.973 13.6542L61.3189 12C61.4271 19.1333 61.5606 26.2667 61.7195 33.4C61.7265 33.6266 61.7115 33.8348 61.6767 34.0009C61.4464 34.8419 62.0013 35.5138 62.873 35.5332C62.9064 35.5324 62.9397 35.5317 62.973 35.5309L61.7421 34.3C61.8177 37.6425 61.8988 40.985 61.9855 44.3274C62.0087 45.2183 62.0322 46.1091 62.0561 47L62.973 46.083C60.973 46.1367 58.973 46.1923 56.973 46.25C56.973 46.75 56.973 47.25 56.973 47.75C58.973 47.8077 60.973 47.8633 62.973 47.917C63.4916 47.9031 63.9039 47.5185 63.89 47C63.9139 46.1091 63.9374 45.2183 63.9605 44.3274C64.0473 40.985 64.1284 37.6425 64.204 34.3C64.1882 33.6039 63.6692 33.0533 62.973 33.0691C62.9397 33.0683 62.9064 33.0676 62.873 33.0668L64.0694 34.5991C64.1811 34.1776 64.2193 33.7782 64.2266 33.4C64.3855 26.2667 64.519 19.1333 64.6272 12C64.613 11.0644 63.9087 10.3317 62.973 10.3458C60.973 10.3155 58.973 10.2872 56.973 10.2609C55.9893 10.2738 55.2209 11.0163 55.2339 12C55.1358 19.45 55.0654 26.9 55.0226 34.35C55.0158 35.2406 54.7996 36.0132 54.3597 36.6966C54.3547 36.7046 54.3396 36.7289 54.3348 36.737C53.9097 37.4363 53.3074 37.9864 52.5235 38.4092L52.5428 38.3989C51.7509 38.8168 50.8083 39.0104 49.773 39.0066C48.7769 39.0047 47.8599 38.7986 47.0385 38.373L47.0609 38.3847C46.5161 38.0946 46.0551 37.7307 45.6734 37.2861C45.5248 37.1132 45.388 36.9279 45.2625 36.73L45.2781 36.755C44.836 36.035 44.6213 35.2437 44.6195 34.35C44.5914 26.8956 44.5357 19.4456 44.4523 11.9958C44.4404 10.9352 43.6337 10.1113 42.573 10.1208C40.5897 10.1385 38.6064 10.1583 36.623 10.18C35.5935 10.1912 34.7918 10.9705 34.803 12C34.8845 19.45 34.9937 26.9 35.1305 34.35C35.159 36.842 35.8414 39.3888 37.1447 41.5291C38.3974 43.6357 40.2395 45.4143 42.3533 46.5947C42.3575 46.597 42.3699 46.6045 42.3742 46.6068C44.6563 47.8505 47.2714 48.3636 49.773 48.2943C50.5847 48.2759 51.4031 48.1728 52.2001 47.9678C52.8642 47.7975 53.5121 47.5563 54.124 47.249C55.3986 46.6101 56.5628 45.7547 57.5501 44.7477L56.1422 44.15C56.1687 45.1 56.1957 46.05 56.223 47ZM57.723 47H56.223C56.2353 47.4241 56.549 47.7622 56.973 47.75V46.25L57.723 47Z" fill="white" mask="url(#path-1-outside-1_40_411)"/>
<mask id="path-3-outside-2_40_411" maskUnits="userSpaceOnUse" x="59" y="18" width="97" height="29" fill="black">
<rect fill="white" x="59" y="18" width="97" height="29"/>
<path d="M67.641 40.27C66.831 40.27 66.012 40.144 65.184 39.892C64.374 39.64 63.609 39.298 62.889 38.866C62.187 38.416 61.584 37.921 61.08 37.381L63.483 35.059C64.023 35.617 64.671 36.067 65.427 36.409C66.201 36.751 66.921 36.922 67.587 36.922C68.433 36.922 69.144 36.679 69.72 36.193C70.314 35.689 70.611 35.095 70.611 34.411C70.611 33.853 70.404 33.376 69.99 32.98C69.576 32.566 69.063 32.269 68.451 32.089C66.849 31.657 65.481 31.198 64.347 30.712C63.231 30.226 62.403 29.587 61.863 28.795C61.323 28.003 61.125 26.941 61.269 25.609C61.395 24.565 61.737 23.701 62.295 23.017C62.871 22.315 63.591 21.793 64.455 21.451C65.337 21.109 66.309 20.938 67.371 20.938C68.325 20.938 69.324 21.091 70.368 21.397C71.412 21.685 72.447 22.171 73.473 22.855L71.178 25.231C70.656 24.943 70.089 24.7 69.477 24.502C68.865 24.304 68.235 24.196 67.587 24.178C67.083 24.16 66.597 24.214 66.129 24.34C65.679 24.448 65.301 24.646 64.995 24.934C64.689 25.204 64.527 25.573 64.509 26.041C64.491 26.563 64.626 26.968 64.914 27.256C65.202 27.544 65.598 27.778 66.102 27.958C66.624 28.138 67.227 28.336 67.911 28.552C69.171 28.894 70.242 29.29 71.124 29.74C72.006 30.172 72.681 30.757 73.149 31.495C73.617 32.215 73.851 33.187 73.851 34.411C73.851 35.509 73.572 36.499 73.014 37.381C72.456 38.263 71.709 38.965 70.773 39.487C69.837 40.009 68.793 40.27 67.641 40.27ZM75.8074 33.871V29.497H73.8364V26.5H75.8074V21.1H78.9934V26.5H81.0994V29.497H78.9934V33.871C78.9934 34.681 79.0564 35.293 79.1824 35.707C79.3084 36.121 79.4794 36.409 79.6954 36.571C79.9294 36.715 80.1814 36.796 80.4514 36.814C80.7394 36.832 81.0274 36.841 81.3154 36.841H81.7744V40.054H81.3694C80.3794 40.054 79.5334 39.982 78.8314 39.838C78.1294 39.694 77.5534 39.415 77.1034 39.001C76.6534 38.569 76.3204 37.948 76.1044 37.138C75.9064 36.31 75.8074 35.221 75.8074 33.871ZM131.143 40.243C129.865 40.243 128.668 40 127.552 39.514C126.436 39.01 125.455 38.317 124.609 37.435C123.763 36.553 123.097 35.536 122.611 34.384C122.143 33.214 121.909 31.972 121.909 30.658C121.909 29.344 122.143 28.102 122.611 26.932C123.079 25.762 123.736 24.727 124.582 23.827C125.428 22.909 126.409 22.189 127.525 21.667C128.641 21.145 129.847 20.884 131.143 20.884C132.727 20.884 134.203 21.271 135.571 22.045C136.939 22.819 138.127 23.989 139.135 25.555L136.273 27.418C135.589 26.338 134.806 25.555 133.924 25.069C133.042 24.565 132.115 24.313 131.143 24.313C130.045 24.313 129.055 24.601 128.173 25.177C127.309 25.753 126.616 26.527 126.094 27.499C125.59 28.453 125.338 29.506 125.338 30.658C125.338 31.45 125.491 32.215 125.797 32.953C126.103 33.691 126.517 34.357 127.039 34.951C127.579 35.527 128.2 35.986 128.902 36.328C129.604 36.67 130.351 36.841 131.143 36.841C132.295 36.841 133.213 36.688 133.897 36.382C134.599 36.076 135.193 35.554 135.679 34.816V33.574H132.628V30.388H139.108V35.68C138.334 37.282 137.29 38.443 135.976 39.163C134.662 39.883 133.051 40.243 131.143 40.243ZM146.473 40.351C145.177 40.351 144.034 40.072 143.044 39.514C142.072 38.938 141.307 38.146 140.749 37.138C140.209 36.112 139.939 34.924 139.939 33.574C139.939 31.198 140.533 29.407 141.721 28.201C142.927 26.977 144.511 26.365 146.473 26.365C147.751 26.365 148.876 26.635 149.848 27.175C150.838 27.715 151.612 28.525 152.17 29.605C152.728 30.667 153.007 31.99 153.007 33.574C153.007 34.924 152.728 36.112 152.17 37.138C151.612 38.146 150.838 38.938 149.848 39.514C148.876 40.072 147.751 40.351 146.473 40.351ZM146.473 37.246C147.211 37.246 147.832 37.075 148.336 36.733C148.858 36.373 149.245 35.914 149.497 35.356C149.767 34.798 149.902 34.204 149.902 33.574C149.902 32.44 149.605 31.477 149.011 30.685C148.435 29.875 147.589 29.47 146.473 29.47C145.393 29.47 144.547 29.857 143.935 30.631C143.341 31.405 143.044 32.386 143.044 33.574C143.044 34.222 143.179 34.825 143.449 35.383C143.719 35.941 144.106 36.391 144.61 36.733C145.132 37.075 145.753 37.246 146.473 37.246Z"/>
<path d="M94.6271 40H91.7381V38.839C91.4861 39.307 91.0451 39.658 90.4151 39.892C89.7851 40.126 89.0831 40.243 88.3091 40.243C87.5531 40.261 86.8061 40.162 86.0681 39.946C85.3481 39.73 84.7451 39.415 84.2591 39.001C83.1431 37.993 82.5851 36.517 82.5851 34.573V26.5H85.4741V34.573C85.4741 35.599 85.7711 36.346 86.3651 36.814C86.9771 37.282 87.7421 37.516 88.6601 37.516C89.1281 37.516 89.5961 37.417 90.0641 37.219C90.5501 37.003 90.9461 36.679 91.2521 36.247C91.5761 35.815 91.7381 35.257 91.7381 34.573V26.5H94.6271V40ZM99.6527 39.838C98.7707 39.55 98.0327 39.073 97.4387 38.407C96.8627 37.741 96.4307 36.949 96.1427 36.031C95.8547 35.095 95.7107 34.096 95.7107 33.034C95.7107 31.774 95.9357 30.64 96.3857 29.632C96.8537 28.624 97.5287 27.823 98.4107 27.229C99.2927 26.617 100.382 26.311 101.678 26.311C102.11 26.311 102.605 26.356 103.163 26.446C103.739 26.536 104.243 26.716 104.675 26.986V21.1H107.564V40H104.675V38.866C104.369 39.208 103.919 39.487 103.325 39.703C102.749 39.901 102.128 40.018 101.462 40.054C100.814 40.09 100.211 40.018 99.6527 39.838ZM104.675 36.463V29.713C103.631 29.281 102.641 29.128 101.705 29.254C100.787 29.38 100.04 29.767 99.4637 30.415C98.8877 31.045 98.5997 31.918 98.5997 33.034C98.5997 34.33 98.8877 35.347 99.4637 36.085C100.058 36.823 100.814 37.237 101.732 37.327C102.668 37.399 103.649 37.111 104.675 36.463ZM110.176 44.671V41.809C110.86 41.827 111.463 41.683 111.985 41.377C112.507 41.071 112.858 40.576 113.038 39.892L108.124 26.5H111.256L114.712 36.544L117.925 26.5H121.111L116.737 38.434C116.359 39.46 115.99 40.36 115.63 41.134C115.27 41.908 114.856 42.556 114.388 43.078C113.938 43.6 113.371 43.996 112.687 44.266C112.021 44.536 111.184 44.671 110.176 44.671Z"/>
</mask>
<path d="M67.641 40.27C66.831 40.27 66.012 40.144 65.184 39.892C64.374 39.64 63.609 39.298 62.889 38.866C62.187 38.416 61.584 37.921 61.08 37.381L63.483 35.059C64.023 35.617 64.671 36.067 65.427 36.409C66.201 36.751 66.921 36.922 67.587 36.922C68.433 36.922 69.144 36.679 69.72 36.193C70.314 35.689 70.611 35.095 70.611 34.411C70.611 33.853 70.404 33.376 69.99 32.98C69.576 32.566 69.063 32.269 68.451 32.089C66.849 31.657 65.481 31.198 64.347 30.712C63.231 30.226 62.403 29.587 61.863 28.795C61.323 28.003 61.125 26.941 61.269 25.609C61.395 24.565 61.737 23.701 62.295 23.017C62.871 22.315 63.591 21.793 64.455 21.451C65.337 21.109 66.309 20.938 67.371 20.938C68.325 20.938 69.324 21.091 70.368 21.397C71.412 21.685 72.447 22.171 73.473 22.855L71.178 25.231C70.656 24.943 70.089 24.7 69.477 24.502C68.865 24.304 68.235 24.196 67.587 24.178C67.083 24.16 66.597 24.214 66.129 24.34C65.679 24.448 65.301 24.646 64.995 24.934C64.689 25.204 64.527 25.573 64.509 26.041C64.491 26.563 64.626 26.968 64.914 27.256C65.202 27.544 65.598 27.778 66.102 27.958C66.624 28.138 67.227 28.336 67.911 28.552C69.171 28.894 70.242 29.29 71.124 29.74C72.006 30.172 72.681 30.757 73.149 31.495C73.617 32.215 73.851 33.187 73.851 34.411C73.851 35.509 73.572 36.499 73.014 37.381C72.456 38.263 71.709 38.965 70.773 39.487C69.837 40.009 68.793 40.27 67.641 40.27ZM75.8074 33.871V29.497H73.8364V26.5H75.8074V21.1H78.9934V26.5H81.0994V29.497H78.9934V33.871C78.9934 34.681 79.0564 35.293 79.1824 35.707C79.3084 36.121 79.4794 36.409 79.6954 36.571C79.9294 36.715 80.1814 36.796 80.4514 36.814C80.7394 36.832 81.0274 36.841 81.3154 36.841H81.7744V40.054H81.3694C80.3794 40.054 79.5334 39.982 78.8314 39.838C78.1294 39.694 77.5534 39.415 77.1034 39.001C76.6534 38.569 76.3204 37.948 76.1044 37.138C75.9064 36.31 75.8074 35.221 75.8074 33.871ZM131.143 40.243C129.865 40.243 128.668 40 127.552 39.514C126.436 39.01 125.455 38.317 124.609 37.435C123.763 36.553 123.097 35.536 122.611 34.384C122.143 33.214 121.909 31.972 121.909 30.658C121.909 29.344 122.143 28.102 122.611 26.932C123.079 25.762 123.736 24.727 124.582 23.827C125.428 22.909 126.409 22.189 127.525 21.667C128.641 21.145 129.847 20.884 131.143 20.884C132.727 20.884 134.203 21.271 135.571 22.045C136.939 22.819 138.127 23.989 139.135 25.555L136.273 27.418C135.589 26.338 134.806 25.555 133.924 25.069C133.042 24.565 132.115 24.313 131.143 24.313C130.045 24.313 129.055 24.601 128.173 25.177C127.309 25.753 126.616 26.527 126.094 27.499C125.59 28.453 125.338 29.506 125.338 30.658C125.338 31.45 125.491 32.215 125.797 32.953C126.103 33.691 126.517 34.357 127.039 34.951C127.579 35.527 128.2 35.986 128.902 36.328C129.604 36.67 130.351 36.841 131.143 36.841C132.295 36.841 133.213 36.688 133.897 36.382C134.599 36.076 135.193 35.554 135.679 34.816V33.574H132.628V30.388H139.108V35.68C138.334 37.282 137.29 38.443 135.976 39.163C134.662 39.883 133.051 40.243 131.143 40.243ZM146.473 40.351C145.177 40.351 144.034 40.072 143.044 39.514C142.072 38.938 141.307 38.146 140.749 37.138C140.209 36.112 139.939 34.924 139.939 33.574C139.939 31.198 140.533 29.407 141.721 28.201C142.927 26.977 144.511 26.365 146.473 26.365C147.751 26.365 148.876 26.635 149.848 27.175C150.838 27.715 151.612 28.525 152.17 29.605C152.728 30.667 153.007 31.99 153.007 33.574C153.007 34.924 152.728 36.112 152.17 37.138C151.612 38.146 150.838 38.938 149.848 39.514C148.876 40.072 147.751 40.351 146.473 40.351ZM146.473 37.246C147.211 37.246 147.832 37.075 148.336 36.733C148.858 36.373 149.245 35.914 149.497 35.356C149.767 34.798 149.902 34.204 149.902 33.574C149.902 32.44 149.605 31.477 149.011 30.685C148.435 29.875 147.589 29.47 146.473 29.47C145.393 29.47 144.547 29.857 143.935 30.631C143.341 31.405 143.044 32.386 143.044 33.574C143.044 34.222 143.179 34.825 143.449 35.383C143.719 35.941 144.106 36.391 144.61 36.733C145.132 37.075 145.753 37.246 146.473 37.246Z" fill="#1D6E3C"/>
<path d="M94.6271 40H91.7381V38.839C91.4861 39.307 91.0451 39.658 90.4151 39.892C89.7851 40.126 89.0831 40.243 88.3091 40.243C87.5531 40.261 86.8061 40.162 86.0681 39.946C85.3481 39.73 84.7451 39.415 84.2591 39.001C83.1431 37.993 82.5851 36.517 82.5851 34.573V26.5H85.4741V34.573C85.4741 35.599 85.7711 36.346 86.3651 36.814C86.9771 37.282 87.7421 37.516 88.6601 37.516C89.1281 37.516 89.5961 37.417 90.0641 37.219C90.5501 37.003 90.9461 36.679 91.2521 36.247C91.5761 35.815 91.7381 35.257 91.7381 34.573V26.5H94.6271V40ZM99.6527 39.838C98.7707 39.55 98.0327 39.073 97.4387 38.407C96.8627 37.741 96.4307 36.949 96.1427 36.031C95.8547 35.095 95.7107 34.096 95.7107 33.034C95.7107 31.774 95.9357 30.64 96.3857 29.632C96.8537 28.624 97.5287 27.823 98.4107 27.229C99.2927 26.617 100.382 26.311 101.678 26.311C102.11 26.311 102.605 26.356 103.163 26.446C103.739 26.536 104.243 26.716 104.675 26.986V21.1H107.564V40H104.675V38.866C104.369 39.208 103.919 39.487 103.325 39.703C102.749 39.901 102.128 40.018 101.462 40.054C100.814 40.09 100.211 40.018 99.6527 39.838ZM104.675 36.463V29.713C103.631 29.281 102.641 29.128 101.705 29.254C100.787 29.38 100.04 29.767 99.4637 30.415C98.8877 31.045 98.5997 31.918 98.5997 33.034C98.5997 34.33 98.8877 35.347 99.4637 36.085C100.058 36.823 100.814 37.237 101.732 37.327C102.668 37.399 103.649 37.111 104.675 36.463ZM110.176 44.671V41.809C110.86 41.827 111.463 41.683 111.985 41.377C112.507 41.071 112.858 40.576 113.038 39.892L108.124 26.5H111.256L114.712 36.544L117.925 26.5H121.111L116.737 38.434C116.359 39.46 115.99 40.36 115.63 41.134C115.27 41.908 114.856 42.556 114.388 43.078C113.938 43.6 113.371 43.996 112.687 44.266C112.021 44.536 111.184 44.671 110.176 44.671Z" fill="black"/>
<path d="M65.184 39.892L64.5899 41.8017L64.6017 41.8053L65.184 39.892ZM62.889 38.866L61.8097 40.5498C61.8263 40.5604 61.8431 40.5708 61.86 40.581L62.889 38.866ZM61.08 37.381L59.6902 35.9428C58.9056 36.7009 58.8734 37.948 59.6179 38.7456L61.08 37.381ZM63.483 35.059L64.9202 33.6682C64.1525 32.8748 62.8871 32.8536 62.0932 33.6208L63.483 35.059ZM65.427 36.409L64.6027 38.2312C64.608 38.2336 64.6133 38.236 64.6187 38.2384L65.427 36.409ZM69.72 36.193L71.0097 37.7216L71.014 37.718L69.72 36.193ZM69.99 32.98L68.5758 34.3942C68.5863 34.4047 68.5969 34.415 68.6076 34.4253L69.99 32.98ZM68.451 32.089L69.0153 30.1703C69.0008 30.166 68.9863 30.1619 68.9717 30.158L68.451 32.089ZM64.347 30.712L63.5485 32.5457L63.5592 32.5503L64.347 30.712ZM61.863 28.795L63.5155 27.6683L63.5155 27.6683L61.863 28.795ZM61.269 25.609L59.2834 25.3694C59.2824 25.3776 59.2815 25.3858 59.2806 25.394L61.269 25.609ZM62.295 23.017L60.7488 21.7484L60.7453 21.7527L62.295 23.017ZM64.455 21.451L63.7319 19.5862L63.7189 19.5914L64.455 21.451ZM70.368 21.397L69.8055 23.3163C69.8157 23.3192 69.8259 23.3222 69.8361 23.325L70.368 21.397ZM73.473 22.855L74.9115 24.2445C75.3236 23.8179 75.525 23.2304 75.4615 22.6407C75.3979 22.051 75.0759 21.5199 74.5824 21.1909L73.473 22.855ZM71.178 25.231L70.2118 26.9822C71.0031 27.4187 71.9887 27.2704 72.6165 26.6205L71.178 25.231ZM69.477 24.502L68.8614 26.4049L68.8614 26.4049L69.477 24.502ZM67.587 24.178L67.5156 26.1767C67.5209 26.1769 67.5262 26.1771 67.5315 26.1772L67.587 24.178ZM66.129 24.34L66.5957 26.2848C66.6135 26.2805 66.6313 26.276 66.6489 26.2712L66.129 24.34ZM64.995 24.934L66.3182 26.4337C66.3343 26.4195 66.3501 26.4051 66.3657 26.3904L64.995 24.934ZM64.509 26.041L62.5105 25.9641L62.5102 25.9721L64.509 26.041ZM66.102 27.958L65.4293 29.8415C65.4362 29.8439 65.4431 29.8464 65.45 29.8487L66.102 27.958ZM67.911 28.552L67.3087 30.4592C67.3347 30.4674 67.3608 30.475 67.3871 30.4822L67.911 28.552ZM71.124 29.74L70.2151 31.5215C70.2248 31.5265 70.2345 31.5313 70.2443 31.5361L71.124 29.74ZM73.149 31.495L71.46 32.5661C71.464 32.5724 71.468 32.5787 71.4721 32.585L73.149 31.495ZM73.014 37.381L74.7042 38.4503L74.7042 38.4503L73.014 37.381ZM70.773 39.487L69.7989 37.7403L69.7989 37.7403L70.773 39.487ZM67.641 40.27V38.27C67.0414 38.27 66.4185 38.1771 65.7663 37.9787L65.184 39.892L64.6017 41.8053C65.6055 42.1109 66.6206 42.27 67.641 42.27V40.27ZM65.184 39.892L65.7781 37.9823C65.1187 37.7771 64.4999 37.5002 63.918 37.151L62.889 38.866L61.86 40.581C62.7181 41.0958 63.6293 41.5029 64.5899 41.8017L65.184 39.892ZM62.889 38.866L63.9683 37.1822C63.389 36.8109 62.9188 36.42 62.5421 36.0164L61.08 37.381L59.6179 38.7456C60.2492 39.422 60.985 40.0211 61.8097 40.5498L62.889 38.866ZM61.08 37.381L62.4698 38.8192L64.8728 36.4972L63.483 35.059L62.0932 33.6208L59.6902 35.9428L61.08 37.381ZM63.483 35.059L62.0458 36.4498C62.7728 37.2011 63.6329 37.7925 64.6027 38.2312L65.427 36.409L66.2513 34.5868C65.7091 34.3415 65.2732 34.0329 64.9202 33.6682L63.483 35.059ZM65.427 36.409L64.6187 38.2384C65.5809 38.6635 66.5782 38.922 67.587 38.922V36.922V34.922C67.2638 34.922 66.8211 34.8385 66.2353 34.5796L65.427 36.409ZM67.587 36.922V38.922C68.8434 38.922 70.0285 38.5495 71.0097 37.7216L69.72 36.193L68.4303 34.6644C68.2595 34.8085 68.0226 34.922 67.587 34.922V36.922ZM69.72 36.193L71.014 37.718C71.9863 36.893 72.611 35.7678 72.611 34.411H70.611H68.611C68.611 34.4521 68.6048 34.4643 68.5994 34.4751C68.5906 34.4926 68.5524 34.5608 68.426 34.668L69.72 36.193ZM70.611 34.411H72.611C72.611 33.2909 72.169 32.2967 71.3724 31.5347L69.99 32.98L68.6076 34.4253C68.6261 34.443 68.6324 34.4521 68.632 34.4515C68.6318 34.4513 68.6304 34.4493 68.6283 34.4455C68.6261 34.4417 68.6236 34.4368 68.6211 34.4309C68.6185 34.4251 68.6163 34.4192 68.6146 34.4135C68.6128 34.4078 68.6117 34.4031 68.611 34.3999C68.6096 34.393 68.611 34.3957 68.611 34.411H70.611ZM69.99 32.98L71.4042 31.5658C70.7328 30.8943 69.9189 30.436 69.0153 30.1703L68.451 32.089L67.8867 34.0077C68.2071 34.102 68.4192 34.2376 68.5758 34.3942L69.99 32.98ZM68.451 32.089L68.9717 30.158C67.432 29.7428 66.1584 29.3124 65.1348 28.8737L64.347 30.712L63.5592 32.5503C64.8036 33.0836 66.266 33.5712 67.9303 34.02L68.451 32.089ZM64.347 30.712L65.1455 28.8783C64.2827 28.5026 63.7927 28.075 63.5155 27.6683L61.863 28.795L60.2105 29.9217C61.0133 31.099 62.1793 31.9494 63.5485 32.5457L64.347 30.712ZM61.863 28.795L63.5155 27.6683C63.333 27.4007 63.1444 26.8697 63.2574 25.824L61.269 25.609L59.2806 25.394C59.1056 27.0123 59.313 28.6053 60.2105 29.9217L61.863 28.795ZM61.269 25.609L63.2546 25.8486C63.344 25.1078 63.5685 24.6198 63.8447 24.2813L62.295 23.017L60.7453 21.7527C59.9055 22.7822 59.446 24.0222 59.2834 25.3694L61.269 25.609ZM62.295 23.017L63.8411 24.2856C64.1965 23.8525 64.6352 23.5306 65.1911 23.3106L64.455 21.451L63.7189 19.5914C62.5468 20.0554 61.5455 20.7775 60.7489 21.7484L62.295 23.017ZM64.455 21.451L65.1781 23.3157C65.8029 23.0734 66.5261 22.938 67.371 22.938V20.938V18.938C66.0919 18.938 64.8711 19.1446 63.7319 19.5863L64.455 21.451ZM67.371 20.938V22.938C68.1101 22.938 68.919 23.0564 69.8055 23.3163L70.368 21.397L70.9305 19.4777C69.729 19.1256 68.5399 18.938 67.371 18.938V20.938ZM70.368 21.397L69.8361 23.325C70.6486 23.5491 71.4907 23.9371 72.3636 24.5191L73.473 22.855L74.5824 21.1909C73.4033 20.4049 72.1754 19.8209 70.8999 19.469L70.368 21.397ZM73.473 22.855L72.0345 21.4655L69.7395 23.8415L71.178 25.231L72.6165 26.6205L74.9115 24.2445L73.473 22.855ZM71.178 25.231L72.1442 23.4798C71.502 23.1256 70.8166 22.8333 70.0926 22.5991L69.477 24.502L68.8614 26.4049C69.3614 26.5667 69.81 26.7604 70.2118 26.9822L71.178 25.231ZM69.477 24.502L70.0926 22.5991C69.2981 22.342 68.4794 22.202 67.6425 22.1788L67.587 24.178L67.5315 26.1772C67.9906 26.19 68.4319 26.266 68.8614 26.4049L69.477 24.502ZM67.587 24.178L67.6584 22.1793C66.9632 22.1544 66.2774 22.2288 65.6091 22.4088L66.129 24.34L66.6489 26.2712C66.9166 26.1992 67.2029 26.1656 67.5156 26.1767L67.587 24.178ZM66.129 24.34L65.6623 22.3952C64.9087 22.5761 64.209 22.9272 63.6243 23.4776L64.995 24.934L66.3657 26.3904C66.393 26.3648 66.4493 26.3199 66.5957 26.2848L66.129 24.34ZM64.995 24.934L63.6718 23.4343C62.8937 24.1208 62.5461 25.0377 62.5105 25.9641L64.509 26.041L66.5075 26.1179C66.5084 26.0945 66.5101 26.1379 66.4753 26.2172C66.438 26.3022 66.3803 26.3789 66.3182 26.4337L64.995 24.934ZM64.509 26.041L62.5102 25.9721C62.4788 26.8825 62.7162 27.8867 63.4998 28.6702L64.914 27.256L66.3282 25.8418C66.4144 25.928 66.4683 26.0263 66.4941 26.1038C66.5166 26.1713 66.5052 26.1844 66.5078 26.1099L64.509 26.041ZM64.914 27.256L63.4998 28.6702C64.0521 29.2225 64.7303 29.5918 65.4293 29.8415L66.102 27.958L66.7747 26.0745C66.4657 25.9642 66.3519 25.8654 66.3282 25.8418L64.914 27.256ZM66.102 27.958L65.45 29.8487C65.9925 30.0358 66.6127 30.2394 67.3087 30.4592L67.911 28.552L68.5133 26.6448C67.8413 26.4326 67.2555 26.2402 66.754 26.0673L66.102 27.958ZM67.911 28.552L67.3871 30.4822C68.5534 30.7987 69.4876 31.1504 70.2151 31.5215L71.124 29.74L72.0329 27.9585C70.9964 27.4296 69.7886 26.9893 68.4349 26.6218L67.911 28.552ZM71.124 29.74L70.2443 31.5361C70.8369 31.8264 71.2134 32.1772 71.46 32.5661L73.149 31.495L74.838 30.4239C74.1486 29.3368 73.1751 28.5176 72.0037 27.9439L71.124 29.74ZM73.149 31.495L71.4721 32.585C71.6574 32.8701 71.851 33.4169 71.851 34.411H73.851H75.851C75.851 32.9571 75.5766 31.5599 74.8259 30.405L73.149 31.495ZM73.851 34.411H71.851C71.851 35.1511 71.6687 35.7667 71.3238 36.3117L73.014 37.381L74.7042 38.4503C75.4753 37.2313 75.851 35.8669 75.851 34.411H73.851ZM73.014 37.381L71.3238 36.3117C70.9492 36.9039 70.4516 37.3763 69.7989 37.7403L70.773 39.487L71.7471 41.2337C72.9664 40.5537 73.9628 39.6221 74.7042 38.4503L73.014 37.381ZM70.773 39.487L69.7989 37.7403C69.1829 38.0838 68.4783 38.27 67.641 38.27V40.27V42.27C69.1077 42.27 70.4911 41.9342 71.7471 41.2337L70.773 39.487ZM75.8074 29.497H77.8074C77.8074 28.3924 76.912 27.497 75.8074 27.497V29.497ZM73.8364 29.497H71.8364C71.8364 30.6016 72.7319 31.497 73.8364 31.497V29.497ZM73.8364 26.5V24.5C72.7319 24.5 71.8364 25.3954 71.8364 26.5H73.8364ZM75.8074 26.5V28.5C76.912 28.5 77.8074 27.6046 77.8074 26.5H75.8074ZM75.8074 21.1V19.1C74.7029 19.1 73.8074 19.9954 73.8074 21.1H75.8074ZM78.9934 21.1H80.9934C80.9934 19.9954 80.098 19.1 78.9934 19.1V21.1ZM78.9934 26.5H76.9934C76.9934 27.6046 77.8889 28.5 78.9934 28.5V26.5ZM81.0994 26.5H83.0994C83.0994 25.3954 82.204 24.5 81.0994 24.5V26.5ZM81.0994 29.497V31.497C82.204 31.497 83.0994 30.6016 83.0994 29.497H81.0994ZM78.9934 29.497V27.497C77.8889 27.497 76.9934 28.3924 76.9934 29.497H78.9934ZM79.6954 36.571L78.4954 38.171C78.5444 38.2077 78.5951 38.2422 78.6473 38.2743L79.6954 36.571ZM80.4514 36.814L80.3184 38.8096L80.3267 38.8101L80.4514 36.814ZM81.7744 36.841H83.7744C83.7744 35.7364 82.879 34.841 81.7744 34.841V36.841ZM81.7744 40.054V42.054C82.879 42.054 83.7744 41.1586 83.7744 40.054H81.7744ZM78.8314 39.838L79.2333 37.8788L79.2333 37.8788L78.8314 39.838ZM77.1034 39.001L75.7184 40.4438C75.7286 40.4536 75.7389 40.4633 75.7493 40.4729L77.1034 39.001ZM76.1044 37.138L74.1593 37.6031C74.1633 37.6199 74.1675 37.6367 74.172 37.6533L76.1044 37.138ZM75.8074 33.871H77.8074V29.497H75.8074H73.8074V33.871H75.8074ZM75.8074 29.497V27.497H73.8364V29.497V31.497H75.8074V29.497ZM73.8364 29.497H75.8364V26.5H73.8364H71.8364V29.497H73.8364ZM73.8364 26.5V28.5H75.8074V26.5V24.5H73.8364V26.5ZM75.8074 26.5H77.8074V21.1H75.8074H73.8074V26.5H75.8074ZM75.8074 21.1V23.1H78.9934V21.1V19.1H75.8074V21.1ZM78.9934 21.1H76.9934V26.5H78.9934H80.9934V21.1H78.9934ZM78.9934 26.5V28.5H81.0994V26.5V24.5H78.9934V26.5ZM81.0994 26.5H79.0994V29.497H81.0994H83.0994V26.5H81.0994ZM81.0994 29.497V27.497H78.9934V29.497V31.497H81.0994V29.497ZM78.9934 29.497H76.9934V33.871H78.9934H80.9934V29.497H78.9934ZM78.9934 33.871H76.9934C76.9934 34.7382 77.0556 35.5878 77.2691 36.2893L79.1824 35.707L81.0958 35.1247C81.0573 34.9982 80.9934 34.6238 80.9934 33.871H78.9934ZM79.1824 35.707L77.2691 36.2893C77.45 36.8837 77.7898 37.6418 78.4954 38.171L79.6954 36.571L80.8954 34.971C81.0407 35.0799 81.1079 35.1837 81.1249 35.2124C81.1411 35.2396 81.1249 35.2202 81.0958 35.1247L79.1824 35.707ZM79.6954 36.571L78.6473 38.2743C79.1536 38.5859 79.719 38.7696 80.3184 38.8096L80.4514 36.814L80.5845 34.8184C80.6086 34.82 80.6392 34.8252 80.672 34.8357C80.7046 34.8462 80.729 34.8587 80.7436 34.8677L79.6954 36.571ZM80.4514 36.814L80.3267 38.8101C80.6561 38.8307 80.9857 38.841 81.3154 38.841V36.841V34.841C81.0691 34.841 80.8227 34.8333 80.5762 34.8179L80.4514 36.814ZM81.3154 36.841V38.841H81.7744V36.841V34.841H81.3154V36.841ZM81.7744 36.841H79.7744V40.054H81.7744H83.7744V36.841H81.7744ZM81.7744 40.054V38.054H81.3694V40.054V42.054H81.7744V40.054ZM81.3694 40.054V38.054C80.4674 38.054 79.7638 37.9876 79.2333 37.8788L78.8314 39.838L78.4296 41.7972C79.3031 41.9764 80.2915 42.054 81.3694 42.054V40.054ZM78.8314 39.838L79.2333 37.8788C78.8252 37.7951 78.5973 37.6577 78.4576 37.5291L77.1034 39.001L75.7493 40.4729C76.5096 41.1723 77.4337 41.5929 78.4296 41.7972L78.8314 39.838ZM77.1034 39.001L78.4885 37.5582C78.3782 37.4523 78.1901 37.197 78.0369 36.6227L76.1044 37.138L74.172 37.6533C74.4508 38.699 74.9287 39.6857 75.7184 40.4438L77.1034 39.001ZM76.1044 37.138L78.0496 36.6729C77.9028 36.059 77.8074 35.1441 77.8074 33.871H75.8074H73.8074C73.8074 35.2979 73.9101 36.561 74.1593 37.6031L76.1044 37.138ZM94.6271 40V42C95.7316 42 96.6271 41.1046 96.6271 40H94.6271ZM91.7381 40H89.7381C89.7381 41.1046 90.6335 42 91.7381 42V40ZM91.7381 38.839H93.7381C93.7381 37.9227 93.1155 37.1237 92.227 36.8997C91.3386 36.6757 90.4115 37.0841 89.9771 37.8908L91.7381 38.839ZM88.3091 40.243V38.243C88.2932 38.243 88.2773 38.2432 88.2615 38.2436L88.3091 40.243ZM86.0681 39.946L85.4934 41.8617L85.5063 41.8655L86.0681 39.946ZM84.2591 39.001L82.9185 40.4852C82.9329 40.4982 82.9474 40.5109 82.9621 40.5235L84.2591 39.001ZM82.5851 26.5V24.5C81.4805 24.5 80.5851 25.3954 80.5851 26.5H82.5851ZM85.4741 26.5H87.4741C87.4741 25.3954 86.5786 24.5 85.4741 24.5V26.5ZM86.3651 36.814L85.1273 38.385C85.1349 38.3909 85.1425 38.3969 85.1502 38.4027L86.3651 36.814ZM90.0641 37.219L90.8434 39.0609C90.8544 39.0563 90.8654 39.0515 90.8764 39.0466L90.0641 37.219ZM91.2521 36.247L89.6521 35.047C89.6412 35.0615 89.6305 35.0762 89.62 35.091L91.2521 36.247ZM91.7381 26.5V24.5C90.6335 24.5 89.7381 25.3954 89.7381 26.5H91.7381ZM94.6271 26.5H96.6271C96.6271 25.3954 95.7316 24.5 94.6271 24.5V26.5ZM94.6271 40V38H91.7381V40V42H94.6271V40ZM91.7381 40H93.7381V38.839H91.7381H89.7381V40H91.7381ZM91.7381 38.839L89.9771 37.8908C89.9871 37.8723 89.9946 37.8711 89.9728 37.8884C89.9461 37.9097 89.8724 37.96 89.7187 38.0171L90.4151 39.892L91.1115 41.7669C92.0728 41.4098 92.9606 40.7871 93.499 39.7872L91.7381 38.839ZM90.4151 39.892L89.7187 38.0171C89.3426 38.1568 88.8809 38.243 88.3091 38.243V40.243V42.243C89.2853 42.243 90.2276 42.0952 91.1115 41.7669L90.4151 39.892ZM88.3091 40.243L88.2615 38.2436C87.715 38.2566 87.1735 38.1856 86.6299 38.0265L86.0681 39.946L85.5063 41.8655C86.4387 42.1384 87.3912 42.2654 88.3567 42.2424L88.3091 40.243ZM86.0681 39.946L86.6428 38.0303C86.1417 37.88 85.797 37.6838 85.556 37.4785L84.2591 39.001L82.9621 40.5235C83.6931 41.1462 84.5545 41.58 85.4934 41.8617L86.0681 39.946ZM84.2591 39.001L85.5997 37.5168C85.0183 36.9917 84.5851 36.1271 84.5851 34.573H82.5851H80.5851C80.5851 36.9069 81.2679 38.9943 82.9185 40.4852L84.2591 39.001ZM82.5851 34.573H84.5851V26.5H82.5851H80.5851V34.573H82.5851ZM82.5851 26.5V28.5H85.4741V26.5V24.5H82.5851V26.5ZM85.4741 26.5H83.4741V34.573H85.4741H87.4741V26.5H85.4741ZM85.4741 34.573H83.4741C83.4741 35.9783 83.8943 37.4135 85.1273 38.385L86.3651 36.814L87.6028 35.243C87.5999 35.2407 87.5823 35.2316 87.5553 35.1638C87.5222 35.0805 87.4741 34.8999 87.4741 34.573H85.4741ZM86.3651 36.814L85.1502 38.4027C86.1743 39.1858 87.3898 39.516 88.6601 39.516V37.516V35.516C88.0943 35.516 87.7799 35.3782 87.58 35.2253L86.3651 36.814ZM88.6601 37.516V39.516C89.418 39.516 90.1501 39.3542 90.8434 39.0609L90.0641 37.219L89.2848 35.3771C89.042 35.4798 88.8381 35.516 88.6601 35.516V37.516ZM90.0641 37.219L90.8764 39.0466C91.6894 38.6853 92.3692 38.13 92.8841 37.403L91.2521 36.247L89.62 35.091C89.5229 35.228 89.4107 35.3207 89.2518 35.3914L90.0641 37.219ZM91.2521 36.247L92.8521 37.447C93.4979 36.5859 93.7381 35.5731 93.7381 34.573H91.7381H89.7381C89.7381 34.9409 89.6542 35.0441 89.6521 35.047L91.2521 36.247ZM91.7381 34.573H93.7381V26.5H91.7381H89.7381V34.573H91.7381ZM91.7381 26.5V28.5H94.6271V26.5V24.5H91.7381V26.5ZM94.6271 26.5H92.6271V40H94.6271H96.6271V26.5H94.6271ZM99.6527 39.838L99.0319 41.7392L99.0387 41.7414L99.6527 39.838ZM97.4387 38.407L95.9259 39.7153C95.9326 39.723 95.9393 39.7306 95.9461 39.7382L97.4387 38.407ZM96.1427 36.031L94.2311 36.6192L94.2344 36.6297L96.1427 36.031ZM96.3857 29.632L94.5716 28.7898C94.5675 28.7987 94.5634 28.8077 94.5594 28.8167L96.3857 29.632ZM98.4107 27.229L99.5279 28.8879C99.5356 28.8827 99.5432 28.8775 99.5508 28.8722L98.4107 27.229ZM103.163 26.446L102.844 28.4205L102.854 28.422L103.163 26.446ZM104.675 26.986L103.615 28.682C104.231 29.0673 105.008 29.0877 105.644 28.7353C106.28 28.3828 106.675 27.713 106.675 26.986H104.675ZM104.675 21.1V19.1C103.57 19.1 102.675 19.9954 102.675 21.1H104.675ZM107.564 21.1H109.564C109.564 19.9954 108.668 19.1 107.564 19.1V21.1ZM107.564 40V42C108.668 42 109.564 41.1046 109.564 40H107.564ZM104.675 40H102.675C102.675 41.1046 103.57 42 104.675 42V40ZM104.675 38.866H106.675C106.675 38.0368 106.163 37.2936 105.388 36.9977C104.614 36.7018 103.737 36.9145 103.184 37.5324L104.675 38.866ZM103.325 39.703L103.975 41.5944C103.986 41.5905 103.997 41.5866 104.008 41.5826L103.325 39.703ZM101.462 40.054L101.354 38.0569L101.351 38.0571L101.462 40.054ZM104.675 36.463L105.743 38.154C106.323 37.7875 106.675 37.1492 106.675 36.463H104.675ZM104.675 29.713H106.675C106.675 28.9038 106.187 28.1744 105.439 27.865L104.675 29.713ZM101.705 29.254L101.438 27.2719L101.433 27.2726L101.705 29.254ZM99.4637 30.415L100.94 31.7645C100.946 31.7576 100.952 31.7507 100.958 31.7437L99.4637 30.415ZM99.4637 36.085L97.887 37.3155C97.8932 37.3234 97.8994 37.3312 97.9056 37.339L99.4637 36.085ZM101.732 37.327L101.537 39.3175C101.55 39.3188 101.564 39.32 101.578 39.3211L101.732 37.327ZM99.6527 39.838L100.273 37.9368C99.7134 37.7539 99.2805 37.4674 98.9313 37.0758L97.4387 38.407L95.9461 39.7382C96.7848 40.6786 97.8279 41.3461 99.0319 41.7392L99.6527 39.838ZM97.4387 38.407L98.9514 37.0987C98.5704 36.6582 98.2647 36.1136 98.051 35.4323L96.1427 36.031L94.2344 36.6297C94.5966 37.7844 95.1549 38.8238 95.9259 39.7153L97.4387 38.407ZM96.1427 36.031L98.0542 35.4428C97.8296 34.7128 97.7107 33.9134 97.7107 33.034H95.7107H93.7107C93.7107 34.2786 93.8797 35.4772 94.2311 36.6192L96.1427 36.031ZM95.7107 33.034H97.7107C97.7107 32.0153 97.8916 31.1649 98.2119 30.4473L96.3857 29.632L94.5594 28.8167C93.9797 30.1151 93.7107 31.5327 93.7107 33.034H95.7107ZM96.3857 29.632L98.1997 30.4742C98.5214 29.7813 98.9622 29.2688 99.5279 28.8879L98.4107 27.229L97.2935 25.5701C96.0952 26.3772 95.1859 27.4667 94.5716 28.7898L96.3857 29.632ZM98.4107 27.229L99.5508 28.8722C100.034 28.5371 100.703 28.311 101.678 28.311V26.311V24.311C100.06 24.311 98.5516 24.6969 97.2705 25.5858L98.4107 27.229ZM101.678 26.311V28.311C101.976 28.311 102.361 28.3426 102.844 28.4205L103.163 26.446L103.481 24.4715C102.848 24.3694 102.243 24.311 101.678 24.311V26.311ZM103.163 26.446L102.854 28.422C103.201 28.4763 103.442 28.5743 103.615 28.682L104.675 26.986L105.735 25.29C105.043 24.8577 104.276 24.5957 103.471 24.47L103.163 26.446ZM104.675 26.986H106.675V21.1H104.675H102.675V26.986H104.675ZM104.675 21.1V23.1H107.564V21.1V19.1H104.675V21.1ZM107.564 21.1H105.564V40H107.564H109.564V21.1H107.564ZM107.564 40V38H104.675V40V42H107.564V40ZM104.675 40H106.675V38.866H104.675H102.675V40H104.675ZM104.675 38.866L103.184 37.5324C103.165 37.5535 103.036 37.6797 102.641 37.8234L103.325 39.703L104.008 41.5826C104.801 41.2943 105.572 40.8625 106.165 40.1996L104.675 38.866ZM103.325 39.703L102.675 37.8116C102.289 37.9441 101.852 38.03 101.354 38.0569L101.462 40.054L101.57 42.0511C102.403 42.006 103.208 41.8579 103.975 41.5944L103.325 39.703ZM101.462 40.054L101.351 38.0571C100.922 38.0809 100.567 38.0315 100.267 37.9346L99.6527 39.838L99.0387 41.7414C99.8542 42.0045 100.705 42.0991 101.573 42.0509L101.462 40.054ZM104.675 36.463H106.675V29.713H104.675H102.675V36.463H104.675ZM104.675 29.713L105.439 27.865C104.134 27.3246 102.786 27.0903 101.438 27.2719L101.705 29.254L101.971 31.2361C102.495 31.1657 103.128 31.2374 103.91 31.561L104.675 29.713ZM101.705 29.254L101.433 27.2726C100.077 27.4586 98.8844 28.0562 97.9688 29.0863L99.4637 30.415L100.958 31.7437C101.195 31.4778 101.496 31.3014 101.977 31.2354L101.705 29.254ZM99.4637 30.415L97.9876 29.0655C96.9815 30.1659 96.5997 31.5761 96.5997 33.034H98.5997H100.6C100.6 32.2599 100.794 31.9241 100.94 31.7645L99.4637 30.415ZM98.5997 33.034H96.5997C96.5997 34.6072 96.9483 36.1128 97.887 37.3155L99.4637 36.085L101.04 34.8545C100.827 34.5812 100.6 34.0528 100.6 33.034H98.5997ZM99.4637 36.085L97.9056 37.339C98.8263 38.4829 100.068 39.1735 101.537 39.3175L101.732 37.327L101.927 35.3365C101.56 35.3005 101.289 35.1631 101.022 34.831L99.4637 36.085ZM101.732 37.327L101.578 39.3211C103.054 39.4346 104.46 38.9644 105.743 38.154L104.675 36.463L103.607 34.772C102.838 35.2576 102.281 35.3634 101.885 35.3329L101.732 37.327ZM110.176 44.671H108.176C108.176 45.7756 109.072 46.671 110.176 46.671V44.671ZM110.176 41.809L110.229 39.8097C109.69 39.7955 109.167 39.9998 108.781 40.3763C108.394 40.7528 108.176 41.2694 108.176 41.809H110.176ZM113.038 39.892L114.972 40.401C115.077 40.0053 115.057 39.5872 114.916 39.203L113.038 39.892ZM108.124 26.5V24.5C107.471 24.5 106.859 24.8192 106.485 25.355C106.11 25.8908 106.022 26.5755 106.247 27.189L108.124 26.5ZM111.256 26.5L113.148 25.8493C112.87 25.042 112.11 24.5 111.256 24.5V26.5ZM114.712 36.544L112.821 37.1947C113.102 38.0096 113.872 38.5533 114.734 38.5439C115.596 38.5345 116.355 37.9742 116.617 37.1534L114.712 36.544ZM117.925 26.5V24.5C117.056 24.5 116.285 25.0622 116.02 25.8906L117.925 26.5ZM121.111 26.5L122.989 27.1883C123.214 26.5748 123.125 25.8903 122.751 25.3547C122.377 24.8191 121.765 24.5 121.111 24.5V26.5ZM116.737 38.434L118.614 39.1254L118.615 39.1223L116.737 38.434ZM115.63 41.134L117.444 41.9775L117.444 41.9775L115.63 41.134ZM114.388 43.078L112.899 41.7429C112.891 41.7526 112.882 41.7623 112.874 41.7721L114.388 43.078ZM112.687 44.266L111.953 42.4057C111.947 42.4079 111.942 42.4102 111.936 42.4125L112.687 44.266ZM110.176 44.671H112.176V41.809H110.176H108.176V44.671H110.176ZM110.176 41.809L110.124 43.8083C111.131 43.8348 112.112 43.6211 112.997 43.1024L111.985 41.377L110.974 39.6516C110.815 39.7449 110.59 39.8192 110.229 39.8097L110.176 41.809ZM111.985 41.377L112.997 43.1024C114.052 42.4838 114.682 41.5033 114.972 40.401L113.038 39.892L111.104 39.383C111.065 39.5304 111.024 39.5974 111.009 39.6194C110.997 39.6363 110.99 39.6424 110.974 39.6516L111.985 41.377ZM113.038 39.892L114.916 39.203L110.002 25.811L108.124 26.5L106.247 27.189L111.161 40.581L113.038 39.892ZM108.124 26.5V28.5H111.256V26.5V24.5H108.124V26.5ZM111.256 26.5L109.365 27.1507L112.821 37.1947L114.712 36.544L116.604 35.8933L113.148 25.8493L111.256 26.5ZM114.712 36.544L116.617 37.1534L119.83 27.1094L117.925 26.5L116.02 25.8906L112.807 35.9346L114.712 36.544ZM117.925 26.5V28.5H121.111V26.5V24.5H117.925V26.5ZM121.111 26.5L119.233 25.8117L114.859 37.7457L116.737 38.434L118.615 39.1223L122.989 27.1883L121.111 26.5ZM116.737 38.434L114.861 37.7426C114.497 38.7306 114.148 39.5779 113.817 40.2905L115.63 41.134L117.444 41.9775C117.832 41.1421 118.222 40.1894 118.614 39.1254L116.737 38.434ZM115.63 41.134L113.817 40.2905C113.523 40.923 113.21 41.3958 112.899 41.7429L114.388 43.078L115.877 44.4131C116.502 43.7162 117.018 42.893 117.444 41.9775L115.63 41.134ZM114.388 43.078L112.874 41.7721C112.649 42.0325 112.357 42.2464 111.953 42.4057L112.687 44.266L113.422 46.1263C114.386 45.7456 115.228 45.1675 115.903 44.3839L114.388 43.078ZM112.687 44.266L111.936 42.4125C111.584 42.5552 111.023 42.671 110.176 42.671V44.671V46.671C111.346 46.671 112.459 46.5168 113.439 46.1195L112.687 44.266ZM127.552 39.514L126.729 41.3367C126.737 41.3404 126.745 41.3441 126.754 41.3477L127.552 39.514ZM124.609 37.435L123.166 38.8195L123.166 38.8195L124.609 37.435ZM122.611 34.384L120.754 35.1268C120.759 35.1384 120.764 35.1499 120.768 35.1614L122.611 34.384ZM122.611 26.932L120.754 26.1892L120.754 26.1892L122.611 26.932ZM124.582 23.827L126.039 25.1968C126.044 25.192 126.048 25.1872 126.053 25.1824L124.582 23.827ZM127.525 21.667L128.372 23.4786L128.372 23.4786L127.525 21.667ZM135.571 22.045L134.586 23.7857L134.586 23.7857L135.571 22.045ZM139.135 25.555L140.226 27.2312C141.149 26.6308 141.413 25.3979 140.817 24.4725L139.135 25.555ZM136.273 27.418L134.583 28.4881C134.87 28.9399 135.325 29.2582 135.847 29.3721C136.37 29.486 136.916 29.3859 137.364 29.0942L136.273 27.418ZM133.924 25.069L132.932 26.8055C132.941 26.8106 132.95 26.8157 132.959 26.8207L133.924 25.069ZM128.173 25.177L127.08 23.5025C127.074 23.5059 127.069 23.5094 127.064 23.5129L128.173 25.177ZM126.094 27.499L124.332 26.5527L124.326 26.5648L126.094 27.499ZM125.797 32.953L127.645 32.187L127.645 32.187L125.797 32.953ZM127.039 34.951L125.537 36.2712C125.551 36.2873 125.565 36.3032 125.58 36.3189L127.039 34.951ZM128.902 36.328L129.778 34.53L129.778 34.53L128.902 36.328ZM133.897 36.382L133.098 34.5486C133.092 34.5512 133.086 34.5538 133.08 34.5564L133.897 36.382ZM135.679 34.816L137.349 35.916C137.564 35.5894 137.679 35.207 137.679 34.816H135.679ZM135.679 33.574H137.679C137.679 32.4694 136.784 31.574 135.679 31.574V33.574ZM132.628 33.574H130.628C130.628 34.6786 131.524 35.574 132.628 35.574V33.574ZM132.628 30.388V28.388C131.524 28.388 130.628 29.2834 130.628 30.388H132.628ZM139.108 30.388H141.108C141.108 29.2834 140.213 28.388 139.108 28.388V30.388ZM139.108 35.68L140.909 36.5501C141.04 36.2787 141.108 35.9813 141.108 35.68H139.108ZM135.976 39.163L136.937 40.917L136.937 40.917L135.976 39.163ZM131.143 40.243V38.243C130.126 38.243 129.202 38.0512 128.351 37.6803L127.552 39.514L126.754 41.3477C128.134 41.9488 129.604 42.243 131.143 42.243V40.243ZM127.552 39.514L128.375 37.6913C127.492 37.2922 126.721 36.7478 126.052 36.0505L124.609 37.435L123.166 38.8195C124.189 39.8862 125.381 40.7278 126.729 41.3367L127.552 39.514ZM124.609 37.435L126.052 36.0505C125.379 35.3489 124.847 34.5389 124.454 33.6066L122.611 34.384L120.768 35.1614C121.347 36.5331 122.147 37.7571 123.166 38.8195L124.609 37.435ZM122.611 34.384L124.468 33.6412C124.099 32.7175 123.909 31.7286 123.909 30.658H121.909H119.909C119.909 32.2154 120.188 33.7105 120.754 35.1268L122.611 34.384ZM121.909 30.658H123.909C123.909 29.5874 124.099 28.5985 124.468 27.6748L122.611 26.932L120.754 26.1892C120.188 27.6055 119.909 29.1006 119.909 30.658H121.909ZM122.611 26.932L124.468 27.6748C124.845 26.7322 125.368 25.9109 126.039 25.1968L124.582 23.827L123.125 22.4572C122.104 23.5431 121.313 24.7918 120.754 26.1892L122.611 26.932ZM124.582 23.827L126.053 25.1824C126.725 24.4529 127.495 23.889 128.372 23.4786L127.525 21.667L126.678 19.8554C125.323 20.489 124.131 21.3651 123.111 22.4716L124.582 23.827ZM127.525 21.667L128.372 23.4786C129.209 23.0871 130.124 22.884 131.143 22.884V20.884V18.884C129.57 18.884 128.073 19.2029 126.678 19.8554L127.525 21.667ZM131.143 20.884V22.884C132.385 22.884 133.521 23.1831 134.586 23.7857L135.571 22.045L136.556 20.3043C134.885 19.3589 133.069 18.884 131.143 18.884V20.884ZM135.571 22.045L134.586 23.7857C135.624 24.373 136.589 25.2939 137.453 26.6375L139.135 25.555L140.817 24.4725C139.666 22.6841 138.254 21.265 136.556 20.3043L135.571 22.045ZM139.135 25.555L138.044 23.8788L135.182 25.7418L136.273 27.418L137.364 29.0942L140.226 27.2312L139.135 25.555ZM136.273 27.418L137.963 26.3479C137.146 25.0584 136.135 24.004 134.889 23.3173L133.924 25.069L132.959 26.8207C133.477 27.106 134.032 27.6176 134.583 28.4881L136.273 27.418ZM133.924 25.069L134.916 23.3325C133.746 22.6639 132.479 22.313 131.143 22.313V24.313V26.313C131.751 26.313 132.338 26.4661 132.932 26.8055L133.924 25.069ZM131.143 24.313V22.313C129.674 22.313 128.301 22.7048 127.08 23.5025L128.173 25.177L129.267 26.8515C129.809 26.4972 130.416 26.313 131.143 26.313V24.313ZM128.173 25.177L127.064 23.5129C125.909 24.2824 124.999 25.3102 124.332 26.5527L126.094 27.499L127.856 28.4453C128.233 27.7438 128.709 27.2236 129.283 26.8411L128.173 25.177ZM126.094 27.499L124.326 26.5648C123.659 27.8261 123.338 29.203 123.338 30.658H125.338H127.338C127.338 29.809 127.521 29.0799 127.862 28.4332L126.094 27.499ZM125.338 30.658H123.338C123.338 31.7152 123.544 32.7404 123.95 33.719L125.797 32.953L127.645 32.187C127.438 31.6896 127.338 31.1848 127.338 30.658H125.338ZM125.797 32.953L123.95 33.719C124.339 34.6573 124.869 35.5109 125.537 36.2712L127.039 34.951L128.541 33.6308C128.166 33.2031 127.868 32.7247 127.645 32.187L125.797 32.953ZM127.039 34.951L125.58 36.3189C126.285 37.0705 127.103 37.6761 128.026 38.126L128.902 36.328L129.778 34.53C129.297 34.2959 128.873 33.9835 128.498 33.5831L127.039 34.951ZM128.902 36.328L128.026 38.126C129.005 38.6029 130.052 38.841 131.143 38.841V36.841V34.841C130.65 34.841 130.203 34.7371 129.778 34.53L128.902 36.328ZM131.143 36.841V38.841C132.44 38.841 133.672 38.6736 134.714 38.2076L133.897 36.382L133.08 34.5564C132.754 34.7024 132.15 34.841 131.143 34.841V36.841ZM133.897 36.382L134.696 38.2154C135.806 37.7318 136.684 36.9267 137.349 35.916L135.679 34.816L134.009 33.716C133.702 34.1813 133.392 34.4202 133.098 34.5486L133.897 36.382ZM135.679 34.816H137.679V33.574H135.679H133.679V34.816H135.679ZM135.679 33.574V31.574H132.628V33.574V35.574H135.679V33.574ZM132.628 33.574H134.628V30.388H132.628H130.628V33.574H132.628ZM132.628 30.388V32.388H139.108V30.388V28.388H132.628V30.388ZM139.108 30.388H137.108V35.68H139.108H141.108V30.388H139.108ZM139.108 35.68L137.307 34.8099C136.68 36.1092 135.9 36.9244 135.015 37.409L135.976 39.163L136.937 40.917C138.681 39.9616 139.989 38.4548 140.909 36.5501L139.108 35.68ZM135.976 39.163L135.015 37.409C134.065 37.9294 132.805 38.243 131.143 38.243V40.243V42.243C133.297 42.243 135.259 41.8366 136.937 40.917L135.976 39.163ZM143.044 39.514L142.024 41.2346C142.037 41.242 142.049 41.2492 142.062 41.2563L143.044 39.514ZM140.749 37.138L138.979 38.0695C138.986 38.0819 138.992 38.0943 138.999 38.1066L140.749 37.138ZM141.721 28.201L140.296 26.7973L140.296 26.7975L141.721 28.201ZM149.848 27.175L148.877 28.9233C148.881 28.9258 148.886 28.9283 148.89 28.9308L149.848 27.175ZM152.17 29.605L150.393 30.5231L150.399 30.5353L152.17 29.605ZM152.17 37.138L153.92 38.1066C153.922 38.1023 153.925 38.0979 153.927 38.0935L152.17 37.138ZM149.848 39.514L150.844 41.2485L150.854 41.2427L149.848 39.514ZM148.336 36.733L149.459 38.388C149.463 38.3851 149.467 38.3823 149.471 38.3794L148.336 36.733ZM149.497 35.356L147.697 34.4849C147.689 34.5008 147.682 34.5167 147.674 34.5328L149.497 35.356ZM149.011 30.685L147.381 31.844C147.391 31.8578 147.401 31.8715 147.411 31.885L149.011 30.685ZM143.935 30.631L142.366 29.3905C142.36 29.3981 142.354 29.4057 142.348 29.4134L143.935 30.631ZM144.61 36.733L143.487 38.388C143.496 38.394 143.505 38.4 143.514 38.4059L144.61 36.733ZM146.473 40.351V38.351C145.472 38.351 144.676 38.1382 144.026 37.7717L143.044 39.514L142.062 41.2563C143.392 42.0058 144.882 42.351 146.473 42.351V40.351ZM143.044 39.514L144.064 37.7934C143.404 37.4024 142.888 36.8727 142.499 36.1694L140.749 37.138L138.999 38.1066C139.726 39.4193 140.74 40.4736 142.024 41.2346L143.044 39.514ZM140.749 37.138L142.519 36.2065C142.153 35.5116 141.939 34.6529 141.939 33.574H139.939H137.939C137.939 35.1951 138.265 36.7124 138.979 38.0695L140.749 37.138ZM139.939 33.574H141.939C141.939 31.5088 142.454 30.3073 143.146 29.6045L141.721 28.201L140.296 26.7975C138.612 28.5067 137.939 30.8872 137.939 33.574H139.939ZM141.721 28.201L143.146 29.6047C143.921 28.8174 144.964 28.365 146.473 28.365V26.365V24.365C144.058 24.365 141.933 25.1366 140.296 26.7973L141.721 28.201ZM146.473 26.365V28.365C147.462 28.365 148.244 28.5716 148.877 28.9233L149.848 27.175L150.819 25.4267C149.508 24.6984 148.04 24.365 146.473 24.365V26.365ZM149.848 27.175L148.89 28.9308C149.502 29.2645 150.003 29.7688 150.393 30.523L152.17 29.605L153.947 28.687C153.221 27.2812 152.174 26.1655 150.806 25.4192L149.848 27.175ZM152.17 29.605L150.399 30.5353C150.766 31.2333 151.007 32.2141 151.007 33.574H153.007H155.007C155.007 31.7659 154.69 30.1007 153.94 28.6747L152.17 29.605ZM153.007 33.574H151.007C151.007 34.6426 150.788 35.4925 150.413 36.1825L152.17 37.138L153.927 38.0935C154.668 36.7315 155.007 35.2054 155.007 33.574H153.007ZM152.17 37.138L150.42 36.1694C150.036 36.8635 149.518 37.392 148.842 37.7853L149.848 39.514L150.854 41.2427C152.158 40.484 153.188 39.4285 153.92 38.1066L152.17 37.138ZM149.848 39.514L148.852 37.7795C148.224 38.1403 147.451 38.351 146.473 38.351V40.351V42.351C148.051 42.351 149.528 42.0037 150.844 41.2485L149.848 39.514ZM146.473 37.246V39.246C147.526 39.246 148.559 38.9986 149.459 38.388L148.336 36.733L147.213 35.078C147.105 35.1514 146.896 35.246 146.473 35.246V37.246ZM148.336 36.733L149.471 38.3794C150.282 37.8204 150.912 37.0812 151.32 36.1792L149.497 35.356L147.674 34.5328C147.578 34.7468 147.434 34.9256 147.201 35.0866L148.336 36.733ZM149.497 35.356L151.297 36.2271C151.701 35.393 151.902 34.5006 151.902 33.574H149.902H147.902C147.902 33.9074 147.833 34.203 147.697 34.4849L149.497 35.356ZM149.902 33.574H151.902C151.902 32.0729 151.501 30.6723 150.611 29.485L149.011 30.685L147.411 31.885C147.709 32.2817 147.902 32.8071 147.902 33.574H149.902ZM149.011 30.685L150.641 29.526C149.639 28.1175 148.144 27.47 146.473 27.47V29.47V31.47C147.034 31.47 147.231 31.6325 147.381 31.844L149.011 30.685ZM146.473 29.47V27.47C144.848 27.47 143.397 28.0872 142.366 29.3905L143.935 30.631L145.504 31.8715C145.697 31.6268 145.938 31.47 146.473 31.47V29.47ZM143.935 30.631L142.348 29.4134C141.432 30.6074 141.044 32.0441 141.044 33.574H143.044H145.044C145.044 32.7279 145.25 32.2026 145.522 31.8486L143.935 30.631ZM143.044 33.574H141.044C141.044 34.5097 141.241 35.4122 141.649 36.2541L143.449 35.383L145.249 34.5119C145.117 34.2378 145.044 33.9343 145.044 33.574H143.044ZM143.449 35.383L141.649 36.2541C142.069 37.1225 142.687 37.8451 143.487 38.388L144.61 36.733L145.733 35.078C145.525 34.9369 145.369 34.7595 145.249 34.5119L143.449 35.383ZM144.61 36.733L143.514 38.4059C144.409 38.9926 145.425 39.246 146.473 39.246V37.246V35.246C146.081 35.246 145.855 35.1574 145.706 35.0601L144.61 36.733Z" fill="white" mask="url(#path-3-outside-2_40_411)"/>
</svg>
