<svg width="203" height="59" viewBox="0 0 203 59" fill="none" xmlns="http://www.w3.org/2000/svg">
<g filter="url(#filter0_d_72_6)">
<path d="M88.056 34.32C87.096 34.32 86.1253 34.1707 85.144 33.872C84.184 33.5733 83.2773 33.168 82.424 32.656C81.592 32.1227 80.8773 31.536 80.28 30.896L83.128 28.144C83.768 28.8053 84.536 29.3387 85.432 29.744C86.3493 30.1493 87.2027 30.352 87.992 30.352C88.9947 30.352 89.8373 30.064 90.52 29.488C91.224 28.8907 91.576 28.1867 91.576 27.376C91.576 26.7147 91.3307 26.1493 90.84 25.68C90.3493 25.1893 89.7413 24.8373 89.016 24.624C87.1173 24.112 85.496 23.568 84.152 22.992C82.8293 22.416 81.848 21.6587 81.208 20.72C80.568 19.7813 80.3333 18.5227 80.504 16.944C80.6533 15.7067 81.0587 14.6827 81.72 13.872C82.4027 13.04 83.256 12.4213 84.28 12.016C85.3253 11.6107 86.4773 11.408 87.736 11.408C88.8667 11.408 90.0507 11.5893 91.288 11.952C92.5253 12.2933 93.752 12.8693 94.968 13.68L92.248 16.496C91.6293 16.1547 90.9573 15.8667 90.232 15.632C89.5067 15.3973 88.76 15.2693 87.992 15.248C87.3947 15.2267 86.8187 15.2907 86.264 15.44C85.7307 15.568 85.2827 15.8027 84.92 16.144C84.5573 16.464 84.3653 16.9013 84.344 17.456C84.3227 18.0747 84.4827 18.5547 84.824 18.896C85.1653 19.2373 85.6347 19.5147 86.232 19.728C86.8507 19.9413 87.5653 20.176 88.376 20.432C89.8693 20.8373 91.1387 21.3067 92.184 21.84C93.2293 22.352 94.0293 23.0453 94.584 23.92C95.1387 24.7733 95.416 25.9253 95.416 27.376C95.416 28.6773 95.0853 29.8507 94.424 30.896C93.7627 31.9413 92.8773 32.7733 91.768 33.392C90.6587 34.0107 89.4213 34.32 88.056 34.32ZM97.7347 26.736V21.552H95.3987V18H97.7347V11.6H101.511V18H104.007V21.552H101.511V26.736C101.511 27.696 101.585 28.4213 101.735 28.912C101.884 29.4027 102.087 29.744 102.343 29.936C102.62 30.1067 102.919 30.2027 103.239 30.224C103.58 30.2453 103.921 30.256 104.263 30.256H104.807V34.064H104.327C103.153 34.064 102.151 33.9787 101.319 33.808C100.487 33.6373 99.8041 33.3067 99.2708 32.816C98.7374 32.304 98.3427 31.568 98.0867 30.608C97.8521 29.6267 97.7347 28.336 97.7347 26.736ZM163.318 34.288C161.803 34.288 160.384 34 159.062 33.424C157.739 32.8267 156.576 32.0053 155.574 30.96C154.571 29.9147 153.782 28.7093 153.206 27.344C152.651 25.9573 152.374 24.4853 152.374 22.928C152.374 21.3707 152.651 19.8987 153.206 18.512C153.76 17.1253 154.539 15.8987 155.542 14.832C156.544 13.744 157.707 12.8907 159.03 12.272C160.352 11.6533 161.782 11.344 163.318 11.344C165.195 11.344 166.944 11.8027 168.566 12.72C170.187 13.6373 171.595 15.024 172.79 16.88L169.398 19.088C168.587 17.808 167.659 16.88 166.614 16.304C165.568 15.7067 164.47 15.408 163.318 15.408C162.016 15.408 160.843 15.7493 159.798 16.432C158.774 17.1147 157.952 18.032 157.334 19.184C156.736 20.3147 156.438 21.5627 156.438 22.928C156.438 23.8667 156.619 24.7733 156.982 25.648C157.344 26.5227 157.835 27.312 158.454 28.016C159.094 28.6987 159.83 29.2427 160.662 29.648C161.494 30.0533 162.379 30.256 163.318 30.256C164.683 30.256 165.771 30.0747 166.582 29.712C167.414 29.3493 168.118 28.7307 168.694 27.856V26.384H165.078V22.608H172.758V28.88C171.84 30.7787 170.603 32.1547 169.046 33.008C167.488 33.8613 165.579 34.288 163.318 34.288ZM181.487 34.416C179.951 34.416 178.596 34.0853 177.423 33.424C176.271 32.7413 175.364 31.8027 174.703 30.608C174.063 29.392 173.743 27.984 173.743 26.384C173.743 23.568 174.447 21.4453 175.855 20.016C177.284 18.5653 179.161 17.84 181.487 17.84C183.001 17.84 184.335 18.16 185.487 18.8C186.66 19.44 187.577 20.4 188.239 21.68C188.9 22.9387 189.231 24.5067 189.231 26.384C189.231 27.984 188.9 29.392 188.239 30.608C187.577 31.8027 186.66 32.7413 185.487 33.424C184.335 34.0853 183.001 34.416 181.487 34.416ZM181.487 30.736C182.361 30.736 183.097 30.5333 183.695 30.128C184.313 29.7013 184.772 29.1573 185.071 28.496C185.391 27.8347 185.551 27.1307 185.551 26.384C185.551 25.04 185.199 23.8987 184.495 22.96C183.812 22 182.809 21.52 181.487 21.52C180.207 21.52 179.204 21.9787 178.479 22.896C177.775 23.8133 177.423 24.976 177.423 26.384C177.423 27.152 177.583 27.8667 177.903 28.528C178.223 29.1893 178.681 29.7227 179.279 30.128C179.897 30.5333 180.633 30.736 181.487 30.736Z" fill="#B7FF0F"/>
<path d="M120.04 34H116.615V32.624C116.317 33.1787 115.794 33.5947 115.047 33.872C114.301 34.1493 113.469 34.288 112.551 34.288C111.655 34.3093 110.77 34.192 109.895 33.936C109.042 33.68 108.327 33.3067 107.751 32.816C106.429 31.6213 105.767 29.872 105.767 27.568V18H109.191V27.568C109.191 28.784 109.543 29.6693 110.247 30.224C110.973 30.7787 111.879 31.056 112.967 31.056C113.522 31.056 114.077 30.9387 114.631 30.704C115.207 30.448 115.677 30.064 116.04 29.552C116.423 29.04 116.615 28.3787 116.615 27.568V18H120.04V34ZM125.996 33.808C124.95 33.4667 124.076 32.9013 123.372 32.112C122.689 31.3227 122.177 30.384 121.836 29.296C121.494 28.1867 121.324 27.0027 121.324 25.744C121.324 24.2507 121.59 22.9067 122.124 21.712C122.678 20.5173 123.478 19.568 124.524 18.864C125.569 18.1387 126.86 17.776 128.396 17.776C128.908 17.776 129.494 17.8293 130.156 17.936C130.838 18.0427 131.436 18.256 131.948 18.576V11.6H135.372V34H131.948V32.656C131.585 33.0613 131.052 33.392 130.348 33.648C129.665 33.8827 128.929 34.0213 128.14 34.064C127.372 34.1067 126.657 34.0213 125.996 33.808ZM131.948 29.808V21.808C130.71 21.296 129.537 21.1147 128.428 21.264C127.34 21.4133 126.454 21.872 125.772 22.64C125.089 23.3867 124.748 24.4213 124.748 25.744C124.748 27.28 125.089 28.4853 125.772 29.36C126.476 30.2347 127.372 30.7253 128.46 30.832C129.569 30.9173 130.732 30.576 131.948 29.808ZM138.468 39.536V36.144C139.279 36.1653 139.994 35.9947 140.612 35.632C141.231 35.2693 141.647 34.6827 141.86 33.872L136.036 18H139.748L143.844 29.904L147.652 18H151.428L146.244 32.144C145.796 33.36 145.359 34.4267 144.932 35.344C144.506 36.2613 144.015 37.0293 143.46 37.648C142.927 38.2667 142.255 38.736 141.444 39.056C140.655 39.376 139.663 39.536 138.468 39.536Z" fill="white"/>
</g>
<g filter="url(#filter1_d_72_6)">
<path d="M21.5 47H15.5V12H21.5V47ZM35.6363 47.5C34.1363 47.5 32.6197 47.2667 31.0863 46.8C29.5863 46.3333 28.1697 45.7 26.8363 44.9C25.5363 44.0667 24.4197 43.15 23.4863 42.15L27.9363 37.85C28.9363 38.8833 30.1363 39.7167 31.5363 40.35C32.9697 40.9833 34.303 41.3 35.5363 41.3C37.103 41.3 38.4197 40.85 39.4863 39.95C40.5863 39.0167 41.1363 37.9167 41.1363 36.65C41.1363 35.6167 40.753 34.7333 39.9863 34C39.2197 33.2333 38.2697 32.6833 37.1363 32.35C34.1697 31.55 31.6363 30.7 29.5363 29.8C27.4697 28.9 25.9363 27.7167 24.9363 26.25C23.9363 24.7833 23.5697 22.8167 23.8363 20.35C24.0697 18.4167 24.703 16.8167 25.7363 15.55C26.803 14.25 28.1363 13.2833 29.7363 12.65C31.3697 12.0167 33.1697 11.7 35.1363 11.7C36.903 11.7 38.753 11.9833 40.6863 12.55C42.6197 13.0833 44.5363 13.9833 46.4363 15.25L42.1863 19.65C41.2197 19.1167 40.1697 18.6667 39.0363 18.3C37.903 17.9333 36.7363 17.7333 35.5363 17.7C34.603 17.6667 33.703 17.7667 32.8363 18C32.003 18.2 31.303 18.5667 30.7363 19.1C30.1697 19.6 29.8697 20.2833 29.8363 21.15C29.803 22.1167 30.053 22.8667 30.5863 23.4C31.1197 23.9333 31.853 24.3667 32.7863 24.7C33.753 25.0333 34.8697 25.4 36.1363 25.8C38.4697 26.4333 40.453 27.1667 42.0863 28C43.7197 28.8 44.9697 29.8833 45.8363 31.25C46.703 32.5833 47.1363 34.3833 47.1363 36.65C47.1363 38.6833 46.6197 40.5167 45.5863 42.15C44.553 43.7833 43.1697 45.0833 41.4363 46.05C39.703 47.0167 37.7697 47.5 35.6363 47.5ZM68.973 47V44.15C68.0064 45.0833 66.923 45.8333 65.723 46.4C64.523 46.9667 63.2064 47.25 61.773 47.25C59.2397 47.25 56.973 46.6833 54.973 45.55C53.0064 44.3833 51.4564 42.8167 50.323 40.85C49.1897 38.8833 48.623 36.7167 48.623 34.35V12H54.573L54.623 34.35C54.623 35.6167 54.9397 36.7667 55.573 37.8C56.2064 38.8 57.0564 39.5833 58.123 40.15C59.223 40.7167 60.4397 41 61.773 41C63.173 41 64.4064 40.7167 65.473 40.15C66.573 39.55 67.423 38.75 68.023 37.75C68.6564 36.75 68.973 35.6167 68.973 34.35V12H74.973V33.4C74.973 33.7333 74.9397 34.0333 74.873 34.3H74.973V47H68.973Z" fill="white"/>
</g>
<g filter="url(#filter2_d_72_6)">
<path d="M161.128 45.16H154.488C154.488 45.992 154.669 46.664 155.032 47.176C155.405 47.6773 155.891 48.024 156.488 48.216C157.096 48.3973 157.747 48.4187 158.44 48.28C159.144 48.1413 159.827 47.8373 160.488 47.368L160.904 48.04C160.424 48.4027 159.912 48.6747 159.368 48.856C158.835 49.0267 158.285 49.1227 157.72 49.144C156.408 49.1973 155.389 48.8347 154.664 48.056C153.939 47.2667 153.576 46.1787 153.576 44.792C153.576 43.5973 153.901 42.6533 154.552 41.96C155.203 41.2667 156.189 40.92 157.512 40.92C158.333 40.92 159.037 41.0907 159.624 41.432C160.221 41.7733 160.653 42.28 160.92 42.952C161.037 43.2507 161.112 43.5867 161.144 43.96C161.176 44.3333 161.171 44.7333 161.128 45.16ZM157.512 41.72C156.989 41.72 156.499 41.8053 156.04 41.976C155.581 42.1467 155.208 42.424 154.92 42.808C154.632 43.1813 154.488 43.6933 154.488 44.344H160.328C160.328 43.448 160.072 42.7867 159.56 42.36C159.048 41.9333 158.365 41.72 157.512 41.72ZM169.184 44.6H163.584V43.8H169.184V44.6ZM176.82 49H171.636V37.8H172.468V48.232H176.82V49ZM179.891 49H179.059V37.8H179.891V49ZM182.297 49V37.8H186.457C186.98 37.8 187.444 37.928 187.849 38.184C188.265 38.4293 188.59 38.7707 188.825 39.208C189.07 39.6347 189.193 40.12 189.193 40.664C189.193 41.176 189.108 41.608 188.937 41.96C188.766 42.3013 188.478 42.696 188.073 43.144C188.681 43.5173 189.118 43.9333 189.385 44.392C189.662 44.84 189.801 45.3307 189.801 45.864C189.801 46.376 189.668 46.872 189.401 47.352C189.145 47.832 188.804 48.2267 188.377 48.536C187.95 48.8453 187.492 49 187.001 49H182.297ZM183.129 43.032H186.393C186.745 43.032 187.065 42.92 187.353 42.696C187.652 42.4613 187.892 42.1627 188.073 41.8C188.254 41.4373 188.345 41.0587 188.345 40.664C188.345 40.0987 188.174 39.6133 187.833 39.208C187.502 38.8027 187.044 38.6 186.457 38.6H183.129V43.032ZM183.129 48.2H187.001C187.374 48.2 187.705 48.0827 187.993 47.848C188.292 47.6027 188.526 47.2987 188.697 46.936C188.868 46.5733 188.953 46.216 188.953 45.864C188.953 45.4907 188.873 45.1493 188.713 44.84C188.564 44.52 188.345 44.264 188.057 44.072C187.769 43.8693 187.433 43.768 187.049 43.768H183.129V48.2Z" fill="white"/>
</g>
<rect x="0.5" y="4.5" width="202" height="54" rx="15.5" stroke="white"/>
<defs>
<filter id="filter0_d_72_6" x="76.248" y="11.344" width="116.983" height="36.192" filterUnits="userSpaceOnUse" color-interpolation-filters="sRGB">
<feFlood flood-opacity="0" result="BackgroundImageFix"/>
<feColorMatrix in="SourceAlpha" type="matrix" values="0 0 0 0 0 0 0 0 0 0 0 0 0 0 0 0 0 0 127 0" result="hardAlpha"/>
<feOffset dy="4"/>
<feGaussianBlur stdDeviation="2"/>
<feComposite in2="hardAlpha" operator="out"/>
<feColorMatrix type="matrix" values="0 0 0 0 0 0 0 0 0 0 0 0 0 0 0 0 0 0 0.25 0"/>
<feBlend mode="normal" in2="BackgroundImageFix" result="effect1_dropShadow_72_6"/>
<feBlend mode="normal" in="SourceGraphic" in2="effect1_dropShadow_72_6" result="shape"/>
</filter>
<filter id="filter1_d_72_6" x="11.5" y="11.7" width="67.473" height="43.8" filterUnits="userSpaceOnUse" color-interpolation-filters="sRGB">
<feFlood flood-opacity="0" result="BackgroundImageFix"/>
<feColorMatrix in="SourceAlpha" type="matrix" values="0 0 0 0 0 0 0 0 0 0 0 0 0 0 0 0 0 0 127 0" result="hardAlpha"/>
<feOffset dy="4"/>
<feGaussianBlur stdDeviation="2"/>
<feComposite in2="hardAlpha" operator="out"/>
<feColorMatrix type="matrix" values="0 0 0 0 0 0 0 0 0 0 0 0 0 0 0 0 0 0 0.25 0"/>
<feBlend mode="normal" in2="BackgroundImageFix" result="effect1_dropShadow_72_6"/>
<feBlend mode="normal" in="SourceGraphic" in2="effect1_dropShadow_72_6" result="shape"/>
</filter>
<filter id="filter2_d_72_6" x="149.576" y="37.8" width="44.2249" height="19.424" filterUnits="userSpaceOnUse" color-interpolation-filters="sRGB">
<feFlood flood-opacity="0" result="BackgroundImageFix"/>
<feColorMatrix in="SourceAlpha" type="matrix" values="0 0 0 0 0 0 0 0 0 0 0 0 0 0 0 0 0 0 127 0" result="hardAlpha"/>
<feOffset dy="4"/>
<feGaussianBlur stdDeviation="2"/>
<feComposite in2="hardAlpha" operator="out"/>
<feColorMatrix type="matrix" values="0 0 0 0 0 0 0 0 0 0 0 0 0 0 0 0 0 0 0.25 0"/>
<feBlend mode="normal" in2="BackgroundImageFix" result="effect1_dropShadow_72_6"/>
<feBlend mode="normal" in="SourceGraphic" in2="effect1_dropShadow_72_6" result="shape"/>
</filter>
</defs>
</svg>
